<svg xmlns="http://www.w3.org/2000/svg" width="14" height="14" viewBox="0 0 14 14" fill="none">
  <path d="M1.1051 8.2201L0.368352 8.6254C0.199142 8.71823 0.075672 8.87112 0.0251034 9.05044C-0.0254652 9.22976 0.00100946 9.42083 0.0987035 9.5816L1.19498 11.3862C1.29268 11.547 1.4536 11.6643 1.64233 11.7123C1.83107 11.7604 2.03216 11.7352 2.20137 11.6424L2.94696 11.235C3.16941 11.1131 3.42172 11.0489 3.67855 11.0489C3.93537 11.0489 4.18768 11.1131 4.41013 11.235L4.42487 11.2427C4.64855 11.3645 4.83445 11.5402 4.96381 11.7521C5.09316 11.964 5.16139 12.2045 5.16161 12.4495V13.3C5.16161 13.4857 5.23923 13.6637 5.3774 13.795C5.51557 13.9263 5.70296 14 5.89836 14H8.10859C8.30399 14 8.49138 13.9263 8.62955 13.795C8.76771 13.6637 8.84533 13.4857 8.84533 13.3V12.4474C8.84527 12.2031 8.913 11.9631 9.0417 11.7516C9.1704 11.5401 9.35552 11.3645 9.5784 11.2427L9.59387 11.2343C9.81632 11.1124 10.0686 11.0482 10.3255 11.0482C10.5823 11.0482 10.8346 11.1124 11.057 11.2343L11.7997 11.6417C11.9689 11.7345 12.17 11.7597 12.3587 11.7116C12.5475 11.6636 12.7084 11.5463 12.8061 11.3855L13.9024 9.5809C13.9505 9.50116 13.9816 9.41318 13.994 9.32201C14.0063 9.23083 13.9997 9.13823 13.9743 9.04951C13.949 8.96078 13.9056 8.87766 13.8464 8.80489C13.7873 8.73212 13.7137 8.67113 13.6298 8.6254L12.893 8.2201C12.6686 8.0975 12.4823 7.92073 12.3529 7.7077C12.2235 7.49468 12.1557 7.25295 12.1563 7.007V6.9923C12.1556 6.74643 12.2234 6.50476 12.3528 6.29183C12.4822 6.0789 12.6686 5.90228 12.893 5.7799L13.6298 5.3746C13.799 5.28177 13.9224 5.12888 13.973 4.94956C14.0236 4.77024 13.9971 4.57918 13.8994 4.4184L12.8017 2.6138C12.704 2.45303 12.543 2.33572 12.3543 2.28767C12.1656 2.23962 11.9645 2.26478 11.7953 2.3576L11.0511 2.765C10.8287 2.88695 10.5764 2.95114 10.3196 2.95114C10.0627 2.95114 9.81043 2.88695 9.58797 2.765L9.57766 2.758C9.35398 2.6362 9.16808 2.46049 9.03872 2.2486C8.90936 2.03671 8.84113 1.79615 8.84091 1.5512V0.7C8.84091 0.514348 8.76329 0.336301 8.62513 0.205025C8.48696 0.0737498 8.29957 0 8.10417 0H5.89394C5.69854 0 5.51115 0.0737498 5.37298 0.205025C5.23481 0.336301 5.15719 0.514348 5.15719 0.7V1.6058C5.15687 1.83384 5.09338 2.05777 4.97311 2.25511C4.85284 2.45245 4.68002 2.61623 4.47202 2.73L4.3593 2.7916C4.15171 2.90531 3.91631 2.96516 3.6767 2.96516C3.43709 2.96516 3.20169 2.90531 2.99411 2.7916L2.20285 2.3576C2.03363 2.26478 1.83254 2.23962 1.6438 2.28767C1.45507 2.33572 1.29415 2.45303 1.19645 2.6138L0.100177 4.4184C0.0023601 4.57901 -0.024339 4.76994 0.0259476 4.94924C0.0762342 5.12854 0.199392 5.28154 0.368352 5.3746L1.1051 5.7799C1.3295 5.9025 1.51582 6.07927 1.6452 6.2923C1.77458 6.50532 1.84241 6.74705 1.84184 6.993V7.0077C1.84251 7.25357 1.77471 7.49524 1.64531 7.70817C1.51592 7.9211 1.32954 8.09772 1.1051 8.2201ZM6.99905 4.9C7.4362 4.9 7.86352 5.02316 8.22699 5.25391C8.59046 5.48466 8.87376 5.81264 9.04104 6.19636C9.20833 6.58009 9.2521 7.00233 9.16682 7.40969C9.08154 7.81705 8.87103 8.19123 8.56192 8.48492C8.25282 8.77861 7.85899 8.97862 7.43025 9.05965C7.0015 9.14068 6.5571 9.09909 6.15323 8.94015C5.74937 8.7812 5.40417 8.51204 5.16131 8.1667C4.91845 7.82135 4.78882 7.41534 4.78882 7C4.78882 6.44305 5.02168 5.9089 5.43618 5.51508C5.85068 5.12125 6.41286 4.9 6.99905 4.9Z" fill="#8C8C8C"/>
</svg>