<svg width="16" height="16" viewBox="0 0 16 16" fill="none" xmlns="http://www.w3.org/2000/svg">
<g id="vuesax/bold/edit-2">
<g id="edit-2">
<path id="Vector" d="M14 14.6667H2C1.72667 14.6667 1.5 14.44 1.5 14.1667C1.5 13.8934 1.72667 13.6667 2 13.6667H14C14.2733 13.6667 14.5 13.8934 14.5 14.1667C14.5 14.44 14.2733 14.6667 14 14.6667Z" fill="#6539C4"/>
<path id="Vector_2" d="M12.6801 2.32013C11.3868 1.02679 10.1201 0.993459 8.79346 2.32013L7.9868 3.12679C7.92013 3.19346 7.89346 3.30013 7.92013 3.39346C8.4268 5.16013 9.84013 6.57346 11.6068 7.08012C11.6335 7.08679 11.6601 7.09346 11.6868 7.09346C11.7601 7.09346 11.8268 7.06679 11.8801 7.01346L12.6801 6.20679C13.3401 5.55346 13.6601 4.92013 13.6601 4.28013C13.6668 3.62013 13.3468 2.98013 12.6801 2.32013Z" fill="#6539C4"/>
<path id="Vector_3" d="M10.4066 7.68654C10.2132 7.5932 10.0266 7.49987 9.84655 7.3932C9.69989 7.30654 9.55989 7.2132 9.41989 7.1132C9.30655 7.03987 9.17322 6.9332 9.04655 6.82654C9.03322 6.81987 8.98655 6.77987 8.93322 6.72654C8.71322 6.53987 8.46655 6.29987 8.24655 6.0332C8.22655 6.01987 8.19322 5.9732 8.14655 5.9132C8.07989 5.8332 7.96655 5.69987 7.86655 5.54654C7.78655 5.44654 7.69322 5.29987 7.60655 5.1532C7.49989 4.9732 7.40655 4.7932 7.31322 4.60654C7.2991 4.57627 7.28543 4.54616 7.27218 4.51623C7.1738 4.29402 6.88404 4.22905 6.7122 4.40089L2.89322 8.21987C2.80655 8.30654 2.72655 8.4732 2.70655 8.58654L2.34655 11.1399C2.27989 11.5932 2.40655 12.0199 2.68655 12.3065C2.92655 12.5399 3.25989 12.6665 3.61989 12.6665C3.69989 12.6665 3.77989 12.6599 3.85989 12.6465L6.41989 12.2865C6.53989 12.2665 6.70655 12.1865 6.78655 12.0999L10.6008 8.28566C10.7738 8.11263 10.7085 7.81565 10.4834 7.71961C10.4581 7.7088 10.4325 7.69778 10.4066 7.68654Z" fill="#6539C4"/>
</g>
</g>
</svg>
