<svg width="15" height="16" viewBox="0 0 15 16" fill="none" xmlns="http://www.w3.org/2000/svg">
<g id="Info circle" clip-path="url(#clip0_6_633)">
<path id="Vector" d="M7.5 0.8125C3.53073 0.8125 0.3125 4.03189 0.3125 8C0.3125 11.9704 3.53073 15.1875 7.5 15.1875C11.4693 15.1875 14.6875 11.9704 14.6875 8C14.6875 4.03189 11.4693 0.8125 7.5 0.8125ZM7.5 13.7964C4.29658 13.7964 1.70363 11.2045 1.70363 8C1.70363 4.79765 4.29669 2.20363 7.5 2.20363C10.7022 2.20363 13.2964 4.79666 13.2964 8C13.2964 11.2034 10.7045 13.7964 7.5 13.7964ZM7.5 4.0005C8.17226 4.0005 8.71724 4.54548 8.71724 5.21774C8.71724 5.89001 8.17226 6.43498 7.5 6.43498C6.82774 6.43498 6.28276 5.89001 6.28276 5.21774C6.28276 4.54548 6.82774 4.0005 7.5 4.0005ZM9.12298 11.3619C9.12298 11.554 8.96726 11.7097 8.7752 11.7097H6.2248C6.03274 11.7097 5.87702 11.554 5.87702 11.3619V10.6663C5.87702 10.4743 6.03274 10.3185 6.2248 10.3185H6.57258V8.46371H6.2248C6.03274 8.46371 5.87702 8.30799 5.87702 8.11593V7.42036C5.87702 7.2283 6.03274 7.07258 6.2248 7.07258H8.07964C8.2717 7.07258 8.42742 7.2283 8.42742 7.42036V10.3185H8.7752C8.96726 10.3185 9.12298 10.4743 9.12298 10.6663V11.3619Z" fill="#786D8F"/>
</g>
<defs>
<clipPath id="clip0_6_633">
<rect width="15" height="15" fill="white" transform="translate(0 0.5)"/>
</clipPath>
</defs>
</svg>
