<svg width="99" height="11" viewBox="0 0 99 11" fill="none" xmlns="http://www.w3.org/2000/svg">
<path d="M46.8986 0.361006C47.5698 0.0539135 48.4446 0.647161 48.3038 1.39977C48.2352 2.16518 47.1767 2.53625 46.6346 2C46.0879 1.56495 46.2449 0.602959 46.8986 0.361006Z" fill="#474D66"/>
<path d="M24.791 0.740234C25.411 0.741398 26.0322 0.740235 26.6533 0.741398C26.6627 3.83443 26.6545 6.92862 26.6568 10.0217C26.0345 10.0193 25.4133 10.024 24.791 10.0182C24.791 6.9263 24.791 3.83327 24.791 0.740234Z" fill="#474D66"/>
<path d="M32.7016 0.740234C33.324 0.744887 33.9463 0.733256 34.5698 0.748378C34.5651 3.83908 34.5686 6.93095 34.5675 10.0217C33.9451 10.0205 33.324 10.024 32.7016 10.0193C32.704 9.6215 32.7028 9.22368 32.6935 8.82702C32.455 9.27137 32.134 9.69479 31.6652 9.91347C30.6113 10.4276 29.1875 10.1531 28.478 9.19343C27.837 8.33497 27.6904 7.21594 27.7568 6.17252C27.7986 5.33616 28.0371 4.47072 28.6047 3.83559C29.4481 2.88407 31.051 2.72936 32.0456 3.5285C32.3213 3.74719 32.4992 4.05777 32.697 4.34276C32.7075 3.14231 32.6993 1.94069 32.7016 0.740234ZM30.7486 4.62543C30.082 4.80922 29.7273 5.50599 29.6691 6.15158C29.5993 6.85767 29.6528 7.67542 30.1786 8.2105C30.6846 8.75722 31.6443 8.7421 32.1573 8.21167C32.5179 7.85805 32.6586 7.34506 32.6947 6.85418C32.74 6.23999 32.6446 5.57695 32.2538 5.08141C31.906 4.63938 31.2825 4.45908 30.7486 4.62543Z" fill="#474D66"/>
<path d="M54.2513 0.742956C54.8772 0.740629 55.5041 0.740629 56.1311 0.742956C56.1346 3.83599 56.1311 6.92786 56.1323 10.0197C55.5053 10.0232 54.8783 10.0209 54.2513 10.0221C54.2525 9.62888 54.2502 9.23571 54.2478 8.84253C53.9931 9.31015 53.636 9.74753 53.1346 9.95923C52.1552 10.3675 50.9047 10.1733 50.1812 9.36831C49.4867 8.60058 49.2832 7.51761 49.3064 6.51142C49.3064 5.52616 49.5286 4.45483 50.2591 3.74293C50.928 3.04034 52.0214 2.86353 52.9241 3.14968C53.5232 3.33929 53.9629 3.82901 54.2525 4.36875C54.2502 3.16015 54.2513 1.95155 54.2513 0.742956ZM52.2762 4.6328C51.6992 4.80729 51.3468 5.38541 51.256 5.95423C51.1467 6.63472 51.1781 7.38617 51.5457 7.98872C51.9563 8.65642 52.959 8.82043 53.5708 8.34002C54.0548 7.97127 54.2339 7.33033 54.2618 6.74755C54.2839 6.13104 54.1722 5.45986 53.7325 4.99689C53.3743 4.60023 52.7787 4.47576 52.2762 4.6328Z" fill="#474D66"/>
<path d="M96.3745 0.741502C96.9957 0.741502 97.618 0.740339 98.2403 0.742665C98.2438 3.8357 98.2403 6.92756 98.2415 10.0194C97.6192 10.0229 96.998 10.0206 96.3757 10.0218C96.3745 9.62393 96.3722 9.22611 96.3815 8.82828C96.1279 9.27729 95.794 9.71001 95.3125 9.92637C94.2528 10.4254 92.8325 10.1381 92.1357 9.16911C91.5482 8.3816 91.4028 7.36029 91.4215 6.40295C91.4517 5.48283 91.6588 4.50223 92.3102 3.81127C93.0511 2.98421 94.3691 2.78762 95.3474 3.28316C95.8138 3.50766 96.1279 3.93341 96.3803 4.36962C96.3698 3.16102 96.3791 1.95126 96.3745 0.741502ZM94.4901 4.60924C93.7793 4.76046 93.4106 5.50377 93.3454 6.1703C93.2791 6.85893 93.3396 7.64062 93.8247 8.17804C94.333 8.7678 95.366 8.75965 95.872 8.17106C96.2919 7.73368 96.3931 7.09507 96.3861 6.51229C96.3722 5.92021 96.2023 5.2781 95.7312 4.8826C95.3939 4.59412 94.9158 4.50223 94.4901 4.60924Z" fill="#474D66"/>
<path d="M0 0.816686C0.666531 0.815523 1.33423 0.816686 2.00076 0.815522C2.49513 3.03148 2.97206 5.25092 3.47457 7.46455C4.06317 5.25208 4.61919 3.03148 5.19383 0.815522C5.75683 0.816686 6.31867 0.815523 6.88051 0.816686C7.45631 3.03264 8.01932 5.25092 8.60326 7.46455C9.11741 5.25325 9.57688 3.02915 10.0852 0.816686C10.7517 0.816686 11.4183 0.813196 12.0848 0.817849C11.2636 3.88413 10.4563 6.95389 9.63853 10.0213C9.01271 10.0213 8.38573 10.0213 7.75875 10.0202C7.18411 7.95194 6.63158 5.87558 6.03484 3.81317C5.4509 5.87907 4.89371 7.95311 4.32024 10.0225C3.6921 10.0202 3.06511 10.0213 2.43813 10.0213C1.62154 6.95389 0.810772 3.88529 0 0.816686Z" fill="#474D66"/>
<path d="M67.1641 0.816923C67.8329 0.816923 68.5018 0.81576 69.1718 0.818087C69.6604 3.03637 70.1291 5.26163 70.6503 7.47293C71.2133 5.25232 71.7902 3.03637 72.3579 0.816923C72.9209 0.816923 73.4839 0.81576 74.0469 0.816923C74.6297 3.03404 75.1694 5.26395 75.7836 7.47293C76.2547 5.25116 76.7607 3.03637 77.2423 0.816923C77.9112 0.81576 78.58 0.816923 79.25 0.816923C78.4288 3.88436 77.6215 6.95413 76.8026 10.0216C76.1756 10.0192 75.5475 10.0251 74.9205 10.0169C74.3563 7.94404 73.7794 5.87349 73.207 3.80294C72.6103 5.86883 72.0671 7.94986 71.482 10.0192C70.8527 10.0227 70.2234 10.0227 69.5952 10.0192C68.7938 6.94948 67.9702 3.88553 67.1641 0.816923Z" fill="#474D66"/>
<path d="M14.4727 3.11193C15.4685 2.90022 16.5782 2.99909 17.4367 3.58303C18.223 4.09718 18.6778 5.00567 18.7814 5.92462C18.9221 7.0611 18.7348 8.34065 17.9159 9.19911C17.3006 9.87844 16.3607 10.1739 15.4638 10.1692C14.4797 10.1937 13.4375 9.85285 12.7977 9.07581C12.1451 8.30924 11.9648 7.25536 12.016 6.27708C12.0555 5.38837 12.3778 4.47872 13.0408 3.8657C13.434 3.48532 13.9435 3.23756 14.4727 3.11193ZM14.9055 4.56946C14.3134 4.79861 14.0272 5.44769 13.9516 6.03978C13.8748 6.77261 13.8935 7.59037 14.3564 8.20455C14.831 8.83619 15.8942 8.87922 16.4095 8.279C16.8225 7.79858 16.9202 7.13438 16.9132 6.52019C16.9074 5.94207 16.7829 5.32905 16.3863 4.88585C16.0233 4.47756 15.4045 4.38334 14.9055 4.56946Z" fill="#474D66"/>
<path d="M22.3184 3.37033C22.7476 2.9853 23.3699 2.98182 23.9073 3.07138C23.9131 3.61927 23.9097 4.16598 23.912 4.71387C23.3757 4.61383 22.7732 4.55567 22.2963 4.87672C21.8694 5.15589 21.71 5.68982 21.7181 6.17721C21.7123 7.45909 21.7181 8.74097 21.7158 10.024C21.0935 10.0194 20.4723 10.0229 19.85 10.0194C19.8477 7.73129 19.8523 5.44205 19.8477 3.15397C20.47 3.15397 21.0911 3.15165 21.7123 3.1563C21.7146 3.55645 21.7135 3.95777 21.7239 4.35792C21.8752 4.0043 22.0043 3.6181 22.3184 3.37033Z" fill="#474D66"/>
<path d="M57.8741 4.25538C59.0768 2.56869 61.993 2.57916 63.1644 4.29377C63.7321 5.08825 63.8065 6.09794 63.7647 7.04132C62.1885 7.04481 60.6123 7.04132 59.0361 7.04364C59.0617 7.57757 59.2118 8.15337 59.6643 8.48721C60.4157 9.02579 61.6336 8.81059 62.0419 7.93817C62.6049 7.93817 63.1679 7.93351 63.7309 7.94515C63.5518 8.68613 63.083 9.35847 62.413 9.7342C61.5091 10.2355 60.4052 10.2728 59.4211 10.0169C58.3207 9.72256 57.5018 8.72916 57.2948 7.62875C57.0807 6.49111 57.1749 5.21853 57.8741 4.25538ZM59.5538 4.77651C59.2653 5.06615 59.128 5.46398 59.0559 5.85715C60.0377 5.85831 61.0194 5.86645 62.0012 5.85249C61.9174 5.49189 61.8128 5.1185 61.5638 4.83234C61.052 4.28911 60.0935 4.25654 59.5538 4.77651Z" fill="#474D66"/>
<path d="M81.7036 3.09951C82.8052 2.88199 84.0696 3.04135 84.9176 3.83351C85.6388 4.4698 85.9633 5.45156 85.9808 6.39378C86.0285 7.42789 85.7667 8.54808 84.9979 9.28674C84.2615 10.0359 83.1402 10.2476 82.1293 10.1464C81.2662 10.0777 80.4101 9.67526 79.8831 8.97499C79.1294 7.98159 79.0444 6.6241 79.3062 5.44342C79.5609 4.28252 80.5276 3.31355 81.7036 3.09951ZM82.1375 4.54308C81.4291 4.78503 81.1289 5.58301 81.0917 6.27397C81.051 6.92538 81.1022 7.63844 81.4977 8.18399C81.9572 8.82261 83.0052 8.8796 83.545 8.31195C83.9347 7.89318 84.0568 7.29877 84.0766 6.74391C84.0964 6.11693 84.0091 5.43528 83.5962 4.93393C83.2507 4.51865 82.6446 4.38953 82.1375 4.54308Z" fill="#474D66"/>
<path d="M89.5277 3.33585C89.9569 2.96827 90.5618 2.98804 91.0876 3.07994C91.0852 3.62433 91.0852 4.16872 91.0864 4.71428C90.5629 4.61657 89.9813 4.55957 89.5056 4.85038C89.0577 5.11676 88.8751 5.66231 88.8902 6.16134C88.8925 7.44787 88.8914 8.73557 88.8914 10.0221C88.2644 10.0209 87.6374 10.0209 87.0104 10.0221C87.0116 7.73403 87.0069 5.44479 87.0128 3.15671C87.6374 3.15206 88.2621 3.15439 88.8879 3.15439C88.8925 3.55686 88.8902 3.96051 88.8867 4.36298C89.0345 3.9861 89.1938 3.5906 89.5277 3.33585Z" fill="#474D66"/>
<path d="M35.4062 3.15234C36.0332 3.15467 36.6625 3.15002 37.2907 3.157C37.649 4.86578 37.9677 6.58271 38.355 8.28568C38.7796 6.57806 39.1798 4.86462 39.5857 3.15351C40.1801 3.15234 40.7757 3.15351 41.3701 3.15351C41.8005 4.86462 42.1844 6.58736 42.6264 8.29499C42.9975 6.58504 43.3313 4.86695 43.6885 3.15351C44.3015 3.15234 44.9145 3.15234 45.5287 3.15467C44.9319 5.44507 44.3166 7.73082 43.7164 10.0212C43.0522 10.0201 42.388 10.0212 41.7238 10.0201C41.2875 8.39968 40.9072 6.76418 40.4547 5.14845C40.0173 6.76767 39.6276 8.39968 39.2019 10.0212C38.5446 10.0189 37.8886 10.0259 37.2314 10.0166C36.6311 7.72617 36.0135 5.44042 35.4062 3.15234Z" fill="#474D66"/>
<path d="M46.3691 3.15436C46.9915 3.15436 47.6126 3.15087 48.2338 3.15669C48.2419 5.44592 48.235 7.73516 48.2373 10.0232C47.615 10.0197 46.9938 10.0232 46.3715 10.0209C46.3691 7.73167 46.3738 5.44243 46.3691 3.15436Z" fill="#474D66"/>
</svg>
