<svg width="133" height="14" viewBox="0 0 133 14" fill="none" xmlns="http://www.w3.org/2000/svg">
<path d="M63.7708 0.367977C64.6742 -0.0453637 65.8516 0.753136 65.6622 1.76613C65.5698 2.79636 64.145 3.29581 63.4154 2.57403C62.6795 1.98846 62.8909 0.69364 63.7708 0.367977Z" fill="#14092C"/>
<path d="M34.0161 0.87825C34.8506 0.879816 35.6867 0.87825 36.5228 0.879816C36.5353 5.04297 36.5243 9.2077 36.5275 13.3709C35.6898 13.3677 34.8538 13.374 34.0161 13.3662C34.0161 9.20457 34.0161 5.04141 34.0161 0.87825Z" fill="#14092C"/>
<path d="M44.6634 0.87825C45.501 0.884513 46.3386 0.868857 47.1779 0.889211C47.1716 5.04924 47.1763 9.21083 47.1747 13.3709C46.3371 13.3693 45.501 13.374 44.6634 13.3677C44.6665 12.8323 44.6649 12.2968 44.6524 11.7629C44.3314 12.361 43.8993 12.9309 43.2683 13.2252C41.8498 13.9173 39.9334 13.5478 38.9784 12.2561C38.1157 11.1006 37.9184 9.59442 38.0076 8.19C38.064 7.06427 38.385 5.8994 39.149 5.04454C40.2841 3.76381 42.4417 3.55557 43.7803 4.6312C44.1514 4.92555 44.3909 5.34358 44.6571 5.72718C44.6712 4.11139 44.6602 2.49404 44.6634 0.87825ZM42.0346 6.10764C41.1374 6.35502 40.6599 7.29286 40.5816 8.16182C40.4877 9.11219 40.5597 10.2129 41.2674 10.9331C41.9485 11.669 43.2402 11.6486 43.9306 10.9346C44.416 10.4587 44.6054 9.76821 44.654 9.10749C44.715 8.28081 44.5866 7.38837 44.0606 6.72139C43.5924 6.12643 42.7532 5.88375 42.0346 6.10764Z" fill="#14092C"/>
<path d="M73.6693 0.881392C74.5117 0.878261 75.3556 0.878261 76.1995 0.881392C76.2042 5.04455 76.1995 9.20614 76.201 13.3677C75.3571 13.3724 74.5132 13.3693 73.6693 13.3709C73.6709 12.8417 73.6678 12.3125 73.6646 11.7833C73.3217 12.4127 72.8411 13.0014 72.1663 13.2863C70.848 13.8359 69.1648 13.5744 68.191 12.4909C67.2563 11.4576 66.9823 9.99994 67.0136 8.64563C67.0136 7.31949 67.3126 5.87749 68.2959 4.9193C69.1962 3.97362 70.6679 3.73564 71.8829 4.1208C72.6892 4.376 73.281 5.03516 73.6709 5.76163C73.6678 4.13489 73.6693 2.50814 73.6693 0.881392ZM71.0108 6.11704C70.2342 6.3519 69.7598 7.13004 69.6377 7.89566C69.4905 8.81159 69.5328 9.82302 70.0275 10.634C70.5802 11.5328 71.9298 11.7535 72.7534 11.1069C73.4047 10.6106 73.6458 9.74787 73.6834 8.96346C73.7132 8.13365 73.5629 7.23025 72.971 6.6071C72.4888 6.07321 71.6872 5.90568 71.0108 6.11704Z" fill="#14092C"/>
<path d="M130.366 0.879847C131.202 0.879847 132.039 0.878281 132.877 0.881413C132.882 5.04457 132.877 9.20616 132.878 13.3678C132.041 13.3725 131.205 13.3693 130.367 13.3709C130.366 12.8354 130.362 12.3 130.375 11.7645C130.034 12.3688 129.584 12.9513 128.936 13.2425C127.51 13.9142 125.598 13.5275 124.66 12.2232C123.869 11.1633 123.674 9.7886 123.699 8.50004C123.74 7.26158 124.018 5.94171 124.895 5.01169C125.892 3.89849 127.666 3.63389 128.983 4.30087C129.611 4.60305 130.034 5.17609 130.373 5.76322C130.359 4.13647 130.372 2.50816 130.366 0.879847ZM127.829 6.08575C126.872 6.28929 126.376 7.28976 126.288 8.1869C126.199 9.11379 126.281 10.1659 126.934 10.8893C127.618 11.6831 129.008 11.6721 129.689 10.8799C130.254 10.2912 130.391 9.43162 130.381 8.64721C130.362 7.85028 130.134 6.98602 129.5 6.45369C129.046 6.0654 128.402 5.94171 127.829 6.08575Z" fill="#14092C"/>
<path d="M0.646973 0.98158C1.54411 0.980014 2.44281 0.981579 3.33995 0.980014C4.00537 3.96264 4.6473 6.94997 5.32368 9.92947C6.11591 6.95154 6.86431 3.96264 7.63776 0.980014C8.39555 0.981579 9.15178 0.980014 9.908 0.98158C10.683 3.96421 11.4408 6.94997 12.2268 9.92947C12.9188 6.9531 13.5373 3.95951 14.2215 0.98158C15.1186 0.98158 16.0157 0.976883 16.9129 0.983146C15.8075 5.11029 14.7209 9.24214 13.6202 13.3708C12.7779 13.3708 11.934 13.3708 11.0901 13.3693C10.3166 10.5855 9.57295 7.79075 8.76975 5.01479C7.98378 7.79544 7.23381 10.5871 6.46193 13.3724C5.61646 13.3693 4.77255 13.3708 3.92865 13.3708C2.82954 9.24214 1.73826 5.11186 0.646973 0.98158Z" fill="#14092C"/>
<path d="M91.0496 0.981592C91.9498 0.981592 92.8501 0.980027 93.7519 0.983158C94.4095 3.96892 95.0405 6.96408 95.7419 9.94044C96.4997 6.95155 97.2763 3.96892 98.0403 0.981592C98.7981 0.981592 99.5559 0.980026 100.314 0.981592C101.098 3.96579 101.825 6.96721 102.651 9.94044C103.285 6.94998 103.966 3.96892 104.615 0.981592C105.515 0.980026 106.415 0.981592 107.317 0.981592C106.212 5.1103 105.125 9.24215 104.023 13.3709C103.179 13.3677 102.333 13.3756 101.49 13.3646C100.73 10.5745 99.9536 7.78763 99.1833 5.00071C98.3801 7.78136 97.6489 10.5824 96.8614 13.3677C96.0143 13.3724 95.1673 13.3724 94.3218 13.3677C93.2431 9.23589 92.1346 5.11187 91.0496 0.981592Z" fill="#14092C"/>
<path d="M20.1273 4.07076C21.4675 3.78581 22.9612 3.91889 24.1167 4.70487C25.1751 5.3969 25.7873 6.6197 25.9266 7.85659C26.1161 9.38627 25.864 11.1085 24.7617 12.264C23.9335 13.1784 22.6684 13.576 21.4613 13.5698C20.1367 13.6027 18.7339 13.1439 17.8727 12.098C16.9944 11.0662 16.7517 9.64774 16.8206 8.331C16.8738 7.13481 17.3075 5.91044 18.2 5.08533C18.7292 4.57335 19.4149 4.23986 20.1273 4.07076ZM20.7098 6.03257C19.9128 6.34101 19.5277 7.21466 19.4259 8.01159C19.3226 8.99798 19.3476 10.0987 19.9707 10.9253C20.6095 11.7755 22.0406 11.8334 22.7342 11.0255C23.29 10.3789 23.4215 9.4849 23.4121 8.65822C23.4043 7.88008 23.2368 7.05496 22.7029 6.45844C22.2144 5.90888 21.3814 5.78206 20.7098 6.03257Z" fill="#14092C"/>
<path d="M30.6881 4.41829C31.2658 3.90004 32.1034 3.89535 32.8268 4.01591C32.8346 4.75334 32.8299 5.48922 32.8331 6.22665C32.1113 6.092 31.3002 6.01372 30.6583 6.44585C30.0837 6.82161 29.8692 7.54026 29.8802 8.19629C29.8723 9.92167 29.8802 11.6471 29.877 13.374C29.0394 13.3677 28.2033 13.3724 27.3657 13.3677C27.3625 10.288 27.3688 7.20677 27.3625 4.12707C28.2002 4.12707 29.0363 4.12394 29.8723 4.1302C29.8755 4.6688 29.8739 5.20896 29.888 5.74755C30.0915 5.27159 30.2653 4.75178 30.6881 4.41829Z" fill="#14092C"/>
<path d="M78.5451 5.60978C80.164 3.33953 84.0892 3.35362 85.6658 5.66144C86.4299 6.73081 86.5301 8.08982 86.4737 9.35959C84.3522 9.36429 82.2307 9.35959 80.1092 9.36272C80.1437 10.0814 80.3456 10.8564 80.9547 11.3057C81.9661 12.0307 83.6054 11.741 84.155 10.5667C84.9127 10.5667 85.6705 10.5605 86.4283 10.5761C86.1872 11.5735 85.5562 12.4784 84.6544 12.9842C83.4379 13.659 81.952 13.7091 80.6275 13.3646C79.1463 12.9685 78.0441 11.6314 77.7654 10.1503C77.4773 8.61902 77.6041 6.90616 78.5451 5.60978ZM80.806 6.3112C80.4177 6.70106 80.2329 7.23652 80.1358 7.76572C81.4573 7.76729 82.7787 7.77825 84.1002 7.75946C83.9874 7.2741 83.8465 6.77151 83.5115 6.38636C82.8226 5.65518 81.5324 5.61134 80.806 6.3112Z" fill="#14092C"/>
<path d="M110.619 4.05349C112.101 3.7607 113.803 3.9752 114.945 5.04143C115.915 5.89786 116.352 7.2193 116.376 8.48751C116.44 9.8794 116.088 11.3872 115.053 12.3814C114.062 13.3897 112.552 13.6746 111.192 13.5384C110.03 13.446 108.878 12.9043 108.168 11.9618C107.154 10.6247 107.039 8.79751 107.392 7.20834C107.735 5.64579 109.036 4.34157 110.619 4.05349ZM111.203 5.9965C110.249 6.32216 109.845 7.39623 109.795 8.32624C109.74 9.20303 109.809 10.1628 110.341 10.8971C110.96 11.7567 112.371 11.8334 113.097 11.0693C113.622 10.5057 113.786 9.70561 113.813 8.95878C113.839 8.11487 113.722 7.19738 113.166 6.52257C112.701 5.96362 111.885 5.78983 111.203 5.9965Z" fill="#14092C"/>
<path d="M121.149 4.37135C121.727 3.8766 122.541 3.90321 123.248 4.0269C123.245 4.75964 123.245 5.49238 123.247 6.22669C122.542 6.09517 121.759 6.01845 121.119 6.40988C120.516 6.76842 120.27 7.50272 120.291 8.1744C120.294 9.90605 120.292 11.6393 120.292 13.3709C119.448 13.3693 118.605 13.3693 117.761 13.3709C117.762 10.2912 117.756 7.20994 117.764 4.13024C118.605 4.12397 119.445 4.12711 120.288 4.12711C120.294 4.66883 120.291 5.21213 120.286 5.75385C120.485 5.24657 120.699 4.71424 121.149 4.37135Z" fill="#14092C"/>
<path d="M48.303 4.12547C49.1469 4.1286 49.9939 4.12234 50.8394 4.13174C51.3216 6.43173 51.7506 8.74268 52.272 11.0348C52.8435 8.73642 53.3821 6.43016 53.9285 4.12704C54.7286 4.12547 55.5302 4.12704 56.3302 4.12704C56.9095 6.43016 57.4262 8.74894 58.0212 11.0474C58.5206 8.74581 58.97 6.43329 59.4507 4.12704C60.2758 4.12547 61.1009 4.12547 61.9276 4.1286C61.1244 7.21144 60.2961 10.288 59.4882 13.3708C58.5942 13.3693 57.7002 13.3708 56.8062 13.3693C56.2191 11.1883 55.7071 8.98693 55.0981 6.81219C54.5094 8.99162 53.9849 11.1883 53.4118 13.3708C52.5272 13.3677 51.6442 13.3771 50.7595 13.3646C49.9516 10.2817 49.1203 7.20518 48.303 4.12547Z" fill="#14092C"/>
<path d="M63.0598 4.1271C63.8975 4.1271 64.7335 4.1224 65.5696 4.13023C65.5806 7.2115 65.5712 10.2928 65.5743 13.3725C64.7367 13.3678 63.9006 13.3725 63.0629 13.3693C63.0598 10.2881 63.0661 7.2068 63.0598 4.1271Z" fill="#14092C"/>
</svg>
