<svg width="57" height="57" viewBox="0 0 57 57" fill="none" xmlns="http://www.w3.org/2000/svg">
<path d="M21.974 0.776455C26.6262 -0.375959 31.5583 -0.218471 36.1655 1.06893C37.5254 1.4689 38.8652 1.93887 40.1527 2.53132C48.7245 6.29105 55.1215 14.5954 56.5714 23.8422C57.6464 30.2618 56.4314 37.0463 53.1692 42.6783C50.3394 47.5255 46.0872 51.5352 41.0576 54.0325C36.3929 56.2798 31.1333 57.3298 25.9637 56.8598C20.8091 56.3348 15.737 54.5225 11.5898 51.3827C8.28002 48.9529 5.53773 45.7831 3.51288 42.2159C0.4981 36.7163 -0.649314 30.2043 0.355612 24.0097C1.18555 18.5501 3.72286 13.383 7.44759 9.31332C11.2623 5.06614 16.4169 2.06886 21.974 0.776455ZM15.737 19.2426C15.7245 25.4071 15.7245 31.5717 15.737 37.7387C15.6845 39.5961 17.3419 41.2859 19.2092 41.2235C23.7214 41.241 28.2335 41.2285 32.7432 41.2285C33.2307 41.176 33.6656 41.4084 34.0931 41.6034C36.4754 42.6983 38.8678 43.7708 41.2576 44.8482C41.2851 36.5563 41.2026 28.2669 41.2326 19.9775C41.2226 19.0676 41.2476 18.0702 40.6576 17.3127C40.0102 16.2228 38.7153 15.6778 37.4779 15.7328C31.3958 15.7378 25.3113 15.7203 19.2317 15.7403C17.3518 15.6654 15.6445 17.3602 15.737 19.2426Z" fill="#6539C4"/>
<path d="M20.5817 34.5629C20.9066 34.2379 21.3866 34.6154 21.7391 34.7229C24.8463 36.3577 28.5686 36.9677 31.9783 35.9753C33.3157 35.6953 34.5106 35.0203 35.7605 34.5079C36.4405 34.1329 37.1329 35.3253 36.5005 35.7628C31.6733 38.6726 25.2763 38.6801 20.4542 35.7578C20.0267 35.4478 20.2117 34.8329 20.5817 34.5629Z" fill="#6539C4"/>
<path d="M15.7372 19.2442C15.6447 17.3619 17.352 15.667 19.2319 15.742C25.3114 15.722 31.396 15.7395 37.478 15.7345C38.7154 15.6795 40.0104 16.2245 40.6578 17.3144C41.2478 18.0718 41.2228 19.0693 41.2328 19.9792C41.2028 28.2686 41.2853 36.5579 41.2578 44.8498C38.8679 43.7724 36.4756 42.7 34.0933 41.6051C33.6658 41.4101 33.2309 41.1776 32.7434 41.2301C28.2337 41.2301 23.7216 41.2426 19.2094 41.2251C17.342 41.2876 15.6847 39.5977 15.7372 37.7404C15.7247 31.5733 15.7247 25.4088 15.7372 19.2442ZM20.5793 34.5656C20.2093 34.8356 20.0243 35.4505 20.4518 35.7605C25.2739 38.6828 31.671 38.6753 36.4981 35.7655C37.1306 35.328 36.4381 34.1356 35.7582 34.5106C34.5083 35.0231 33.3134 35.698 31.976 35.978C28.5662 36.9704 24.844 36.3605 21.7367 34.7256C21.3842 34.6181 20.9043 34.2406 20.5793 34.5656Z" fill="white"/>
</svg>
