<svg width="100" height="6" viewBox="0 0 100 6" fill="none" xmlns="http://www.w3.org/2000/svg">
<path d="M42.1135 0.719289C42.6023 0.140838 43.4121 -0.0320469 44.1362 0.00694982C44.7952 0.0251483 45.5153 0.260428 45.8923 0.83498C46.0873 1.09106 46.1055 1.42123 46.1614 1.7254C45.735 1.728 45.3113 1.7306 44.8862 1.7267C44.7237 1.08976 43.923 0.95457 43.4017 1.21455C43.0767 1.36144 43.0417 1.90349 43.3978 2.03478C44.1349 2.33765 45.0019 2.27136 45.6804 2.73152C46.5566 3.31387 46.398 4.78665 45.5283 5.3027C44.7432 5.78366 43.7319 5.78236 42.8675 5.53928C42.1694 5.3482 41.6456 4.70085 41.6313 3.97161C42.0563 3.97161 42.4814 3.96641 42.9065 3.97031C43.1612 4.64886 44.0894 4.76455 44.647 4.41488C44.9395 4.25889 44.959 3.78053 44.6379 3.64794C43.9425 3.30997 43.1001 3.40616 42.4372 2.9746C41.6482 2.54563 41.5325 1.36533 42.1135 0.719289Z" fill="currentColor"/>
<path d="M96.1279 0.564372C96.8025 -0.0387764 97.7982 -0.090772 98.6445 0.0951122C99.2983 0.232901 99.8573 0.741158 100 1.4041V1.72777C99.5934 1.72907 99.1865 1.73037 98.7797 1.72647C98.5717 1.05963 97.6475 0.902344 97.1457 1.31831C96.8675 1.56529 97.0378 2.02935 97.3914 2.09044C98.2844 2.36862 99.4335 2.31402 100 3.20185V4.61223C99.6779 5.30247 98.907 5.64174 98.1817 5.68204C97.3862 5.73793 96.4633 5.64304 95.903 5.01C95.63 4.73312 95.5754 4.33405 95.4909 3.97268C95.9134 3.96748 96.3372 3.96748 96.7609 3.97528C97.056 4.64083 97.9854 4.77602 98.5509 4.39255C98.8226 4.21446 98.7979 3.7361 98.4833 3.61911C97.7203 3.29934 96.7895 3.39943 96.1253 2.84438C95.4298 2.29193 95.4779 1.13372 96.1279 0.564372Z" fill="currentColor"/>
<path d="M0.000699799 0.103351C0.537554 0.103351 1.07441 0.103351 1.61126 0.103351C2.07792 1.30705 2.53159 2.51595 3.00475 3.71834C3.45841 2.51075 3.92767 1.30835 4.38783 0.103351C4.92468 0.103351 5.46024 0.103351 5.99709 0.102051C5.99579 1.9336 5.99709 3.76384 5.99709 5.59539C5.59023 5.59539 5.18466 5.59539 4.7778 5.59539C4.7726 4.43588 4.78689 3.27508 4.77 2.11558C4.29684 3.26858 3.86007 4.43718 3.39861 5.59539C3.13213 5.59539 2.86436 5.59539 2.59788 5.59539C2.14032 4.44368 1.70616 3.28288 1.2304 2.13898C1.2057 3.29068 1.2252 4.44238 1.2187 5.59539C0.813131 5.59539 0.406265 5.59539 0.000699799 5.59539C0.000699799 3.76384 -0.000600091 1.9336 0.000699799 0.103351Z" fill="currentColor"/>
<path d="M13.0001 0.103117C13.4655 0.101817 13.9321 0.103117 14.3975 0.103117C14.3988 1.93336 14.3975 3.76361 14.3975 5.59385C13.9321 5.59515 13.4655 5.59515 13.0001 5.59515C13.0001 3.76491 13.0001 1.93336 13.0001 0.103117Z" fill="currentColor"/>
<path d="M21.4006 5.59409C21.4032 3.76514 21.3993 1.9349 21.4032 0.10595C21.7997 0.103351 22.1962 0.102051 22.5939 0.102051C23.331 1.16926 24.0641 2.23907 24.8128 3.29718C24.8154 2.23257 24.8115 1.16926 24.8141 0.104651C25.2795 0.103351 25.7462 0.102051 26.2115 0.102051C26.2102 1.9336 26.2115 3.76384 26.2115 5.59539C25.8164 5.59539 25.4212 5.59539 25.026 5.59409C24.2903 4.50868 23.5377 3.43497 22.7967 2.35346C22.8006 3.43367 22.798 4.51388 22.798 5.59539C22.3327 5.59539 21.866 5.59539 21.4006 5.59409Z" fill="currentColor"/>
<path d="M33.2166 0.104449C33.6871 0.101849 34.1577 0.101849 34.6282 0.103149C34.6295 1.93339 34.6269 3.76364 34.6282 5.59388C34.1577 5.59518 33.6858 5.59518 33.2152 5.59518C33.2152 3.76494 33.2127 1.93469 33.2166 0.104449Z" fill="currentColor"/>
<path d="M53.2679 0.104241C54.7407 0.0990419 56.2134 0.106841 57.6862 0.100342C57.6862 0.47601 57.6862 0.850378 57.6862 1.22605C57.1831 1.22345 56.6801 1.22475 56.177 1.22475C56.1744 2.68062 56.1757 4.1378 56.1757 5.59498C55.7091 5.59498 55.2437 5.59498 54.7784 5.59368C54.7771 4.1378 54.781 2.68062 54.7758 1.22475C54.2727 1.22605 53.7709 1.22345 53.2679 1.22345C53.2666 0.850378 53.2666 0.47731 53.2679 0.104241Z" fill="currentColor"/>
<path d="M64.6903 0.105419C65.8082 0.158714 66.9599 -0.037569 68.0531 0.248407C69.4596 0.690369 69.5181 2.91188 68.2182 3.52283C68.6043 4.20137 68.9331 4.91241 69.314 5.59485C68.785 5.59485 68.2572 5.59485 67.7281 5.59485C67.4071 4.97351 67.1198 4.33396 66.8026 3.71001C66.5634 3.71131 66.3256 3.71131 66.0877 3.71001C66.0864 4.33786 66.0877 4.96571 66.0864 5.59485C65.621 5.59485 65.1544 5.59485 64.689 5.59355C64.6903 3.76461 64.689 1.93436 64.6903 0.105419ZM66.0877 1.15963C66.0864 1.66789 66.0864 2.17744 66.0864 2.6857C66.5049 2.6584 66.9599 2.77279 67.3512 2.58691C67.9049 2.31783 67.823 1.37281 67.2355 1.20123C66.8559 1.13233 66.4698 1.16093 66.0877 1.15963Z" fill="currentColor"/>
<path d="M76.3174 0.103117C76.7828 0.103117 77.2481 0.101817 77.7148 0.103117C77.7148 1.93336 77.7148 3.76491 77.7148 5.59515C77.2481 5.59515 76.7828 5.59515 76.3174 5.59385C76.3174 3.76361 76.3161 1.93336 76.3174 0.103117Z" fill="currentColor"/>
<path d="M84.7187 0.104241C85.9757 0.0990419 87.2314 0.106841 88.4871 0.100342C88.4871 0.47601 88.4871 0.850378 88.4871 1.22605C87.6967 1.22345 86.9064 1.22345 86.1161 1.22605C86.1148 1.58872 86.1148 1.95139 86.1135 2.31405C86.8557 2.31145 87.5979 2.31275 88.3415 2.31275C88.3402 2.65983 88.3415 3.0056 88.3415 3.35267C87.5992 3.35397 86.8583 3.35007 86.1174 3.35527C86.1148 3.72833 86.1135 4.1014 86.1161 4.47577C86.9051 4.47317 87.6954 4.47317 88.4871 4.47447C88.4871 4.84754 88.4871 5.22061 88.4884 5.59368C87.2314 5.59628 85.9744 5.59498 84.7174 5.59498C84.7187 3.76473 84.7161 1.93449 84.7187 0.104241Z" fill="currentColor"/>
</svg>
