<svg width="89" height="6" viewBox="0 0 89 6" fill="none" xmlns="http://www.w3.org/2000/svg">
<path d="M37.4851 0.645917C37.9158 0.136133 38.6295 -0.0162295 39.2676 0.018138C39.8484 0.0341762 40.4831 0.241527 40.8153 0.747874C40.9871 0.973554 41.0032 1.26453 41.0524 1.5326C40.6767 1.53489 40.3032 1.53718 39.9286 1.53374C39.7854 0.972408 39.0797 0.853268 38.6203 1.08238C38.3339 1.21184 38.303 1.68954 38.6169 1.80525C39.2665 2.07217 40.0306 2.01374 40.6285 2.41928C41.4007 2.9325 41.2609 4.23045 40.4945 4.68524C39.8026 5.10911 38.9113 5.10796 38.1495 4.89374C37.5343 4.72534 37.0727 4.15484 37.0601 3.51217C37.4347 3.51217 37.8093 3.50758 38.1839 3.51102C38.4084 4.10901 39.2264 4.21097 39.7178 3.90281C39.9756 3.76534 39.9928 3.34377 39.7098 3.22692C39.0969 2.92906 38.3546 3.01384 37.7703 2.6335C37.0749 2.25546 36.973 1.21527 37.4851 0.645917Z" fill="#14092C"/>
<path d="M85.0875 0.509569C85.682 -0.0219815 86.5595 -0.0678049 87.3053 0.0960134C87.8815 0.217445 88.3741 0.665368 88.5002 1.24962V1.53487C88.1416 1.53601 87.783 1.53716 87.4244 1.53372C87.2412 0.946036 86.4266 0.80742 85.9844 1.17401C85.7393 1.39167 85.8894 1.80064 86.201 1.85448C86.988 2.09964 88.0007 2.05152 88.5002 2.83396V4.07691C88.216 4.68522 87.5367 4.98422 86.8975 5.01973C86.1964 5.06899 85.383 4.98536 84.8893 4.42746C84.6487 4.18345 84.6006 3.83176 84.5261 3.51329C84.8984 3.5087 85.2719 3.5087 85.6454 3.51558C85.9054 4.10212 86.7245 4.22126 87.2228 3.88331C87.4622 3.72637 87.4405 3.30479 87.1633 3.20169C86.4908 2.91987 85.6706 3.00809 85.0852 2.51892C84.4723 2.03205 84.5147 1.01133 85.0875 0.509569Z" fill="#14092C"/>
<path d="M0.371359 0.102952C0.844484 0.102952 1.31761 0.102952 1.79074 0.102952C2.202 1.16376 2.60181 2.22915 3.0188 3.28882C3.41861 2.22457 3.83216 1.16491 4.2377 0.102952C4.71083 0.102952 5.18281 0.102952 5.65593 0.101807C5.65479 1.71593 5.65593 3.32891 5.65593 4.94304C5.29736 4.94304 4.93994 4.94304 4.58138 4.94304C4.57679 3.92118 4.58939 2.89817 4.5745 1.87631C4.15751 2.89245 3.77259 3.92232 3.36591 4.94304C3.13107 4.94304 2.89508 4.94304 2.66023 4.94304C2.25699 3.92805 1.87436 2.90505 1.45508 1.89693C1.43331 2.91192 1.4505 3.92691 1.44477 4.94304C1.08735 4.94304 0.728781 4.94304 0.371359 4.94304C0.371359 3.32891 0.370213 1.71593 0.371359 0.102952Z" fill="#14092C"/>
<path d="M11.8276 0.102957C12.2378 0.101811 12.649 0.102957 13.0591 0.102957C13.0603 1.71594 13.0591 3.32892 13.0591 4.9419C12.649 4.94304 12.2378 4.94304 11.8276 4.94304C11.8276 3.33006 11.8276 1.71594 11.8276 0.102957Z" fill="#14092C"/>
<path d="M19.231 4.94189C19.2332 3.33006 19.2298 1.71708 19.2332 0.105243C19.5827 0.102952 19.9321 0.101807 20.2826 0.101807C20.9321 1.04233 21.5783 1.98514 22.2381 2.91765C22.2404 1.97942 22.237 1.04233 22.2393 0.104098C22.6494 0.102952 23.0606 0.101807 23.4708 0.101807C23.4696 1.71593 23.4708 3.32891 23.4708 4.94304C23.1225 4.94304 22.7742 4.94304 22.426 4.94189C21.7776 3.98533 21.1143 3.03908 20.4613 2.08596C20.4648 3.03794 20.4625 3.98991 20.4625 4.94304C20.0523 4.94304 19.6411 4.94304 19.231 4.94189Z" fill="#14092C"/>
<path d="M29.6442 0.10401C30.0589 0.101719 30.4736 0.101719 30.8883 0.102864C30.8895 1.71584 30.8872 3.32883 30.8883 4.94181C30.4736 4.94295 30.0578 4.94295 29.6431 4.94295C29.6431 3.32997 29.6408 1.71699 29.6442 0.10401Z" fill="#14092C"/>
<path d="M47.3153 0.104007C48.6133 0.0994251 49.9112 0.106299 51.2091 0.100571C51.2091 0.431644 51.2091 0.761572 51.2091 1.09265C50.7658 1.09035 50.3225 1.0915 49.8791 1.0915C49.8768 2.37455 49.878 3.65875 49.878 4.94295C49.4667 4.94295 49.0566 4.94295 48.6465 4.9418C48.6453 3.65875 48.6488 2.37455 48.6442 1.0915C48.2008 1.09265 47.7587 1.09035 47.3153 1.09035C47.3142 0.761572 47.3142 0.43279 47.3153 0.104007Z" fill="#14092C"/>
<path d="M57.3818 0.105195C58.367 0.152164 59.3819 -0.020819 60.3454 0.231209C61.5849 0.620707 61.6365 2.57851 60.4909 3.11693C60.8311 3.71493 61.1209 4.34156 61.4566 4.94299C60.9903 4.94299 60.5252 4.94299 60.059 4.94299C59.776 4.3954 59.5229 3.83178 59.2433 3.2819C59.0325 3.28304 58.8229 3.28304 58.6133 3.2819C58.6121 3.83521 58.6133 4.38853 58.6121 4.94299C58.202 4.94299 57.7907 4.94299 57.3806 4.94185C57.3818 3.33001 57.3806 1.71703 57.3818 0.105195ZM58.6133 1.03426C58.6121 1.48219 58.6121 1.93125 58.6121 2.37918C58.981 2.35512 59.3819 2.45593 59.7268 2.29211C60.2148 2.05498 60.1426 1.22214 59.6248 1.07092C59.2903 1.01021 58.9501 1.03541 58.6133 1.03426Z" fill="#14092C"/>
<path d="M67.6287 0.102957C68.0388 0.102957 68.4489 0.101811 68.8602 0.102957C68.8602 1.71594 68.8602 3.33006 68.8602 4.94304C68.4489 4.94304 68.0388 4.94304 67.6287 4.9419C67.6287 3.32892 67.6275 1.71594 67.6287 0.102957Z" fill="#14092C"/>
<path d="M75.0326 0.104007C76.1404 0.0994251 77.2471 0.106299 78.3537 0.100571C78.3537 0.431644 78.3537 0.761572 78.3537 1.09265C77.6572 1.09035 76.9607 1.09035 76.2641 1.09265C76.263 1.41226 76.263 1.73188 76.2618 2.0515C76.916 2.04921 77.5701 2.05035 78.2254 2.05035C78.2242 2.35622 78.2254 2.66095 78.2254 2.96682C77.5713 2.96796 76.9183 2.96453 76.2653 2.96911C76.263 3.29789 76.2619 3.62667 76.2641 3.9566C76.9595 3.95431 77.656 3.95431 78.3537 3.95546C78.3537 4.28424 78.3537 4.61302 78.3548 4.9418C77.2471 4.94409 76.1393 4.94295 75.0315 4.94295C75.0326 3.32997 75.0303 1.71699 75.0326 0.104007Z" fill="#14092C"/>
</svg>
