<svg width="12" height="12" viewBox="0 0 12 12" fill="none" xmlns="http://www.w3.org/2000/svg">
<path fill-rule="evenodd" clip-rule="evenodd" d="M10.9 1.20923H1.3C0.86 1.20923 0.5 1.56923 0.5 2.00923V10.0092C0.5 10.4492 0.86 10.8092 1.3 10.8092H10.9C11.34 10.8092 11.7 10.4492 11.7 10.0092V2.00923C11.7 1.56923 11.34 1.20923 10.9 1.20923ZM10.9 10.0092H1.3V2.00923H10.9V10.0092Z" fill="#575570" stroke="#474D66" stroke-width="0.5"/>
<path fill-rule="evenodd" clip-rule="evenodd" d="M2.09961 3.60938H5.29961V4.40937H2.09961V3.60938Z" fill="#575570" stroke="#474D66" stroke-width="0.5"/>
<path fill-rule="evenodd" clip-rule="evenodd" d="M2.09961 5.60913H5.29961V6.40913H2.09961V5.60913Z" fill="#575570" stroke="#474D66" stroke-width="0.5"/>
<path fill-rule="evenodd" clip-rule="evenodd" d="M2.09961 7.60938H5.29961V8.40937H2.09961V7.60938Z" fill="#575570" stroke="#474D66" stroke-width="0.5"/>
<path fill-rule="evenodd" clip-rule="evenodd" d="M7.67683 7.42526L9.94083 5.16126L9.38083 4.59326L7.67683 6.28926L7.11683 5.72926L6.54883 6.28926L7.67683 7.42526Z" fill="#575570" stroke="#474D66" stroke-width="0.5"/>
</svg>
