<svg xmlns="http://www.w3.org/2000/svg" width="30" height="30" viewBox="0 0 30 30" fill="none">
  <rect width="30" height="30" rx="15" fill="#6539C4"/>
  <path d="M9.28636 13.7884C9.2853 13.0358 9.4337 12.2904 9.723 11.5951C10.0123 10.8999 10.4368 10.2687 10.972 9.73774C11.5071 9.20682 12.1425 8.78674 12.8413 8.50171C13.5401 8.21668 14.2886 8.07234 15.0436 8.07701C18.1942 8.10036 20.7142 10.7108 20.7142 13.8601V14.423C20.7142 17.2642 21.3106 18.9129 21.8358 19.814C21.8923 19.9102 21.9225 20.0197 21.923 20.1313C21.9236 20.2429 21.8947 20.3526 21.8392 20.4495C21.7836 20.5464 21.7034 20.627 21.6067 20.6831C21.5099 20.7392 21.4001 20.7689 21.2881 20.7692H8.71184C8.59988 20.7689 8.48999 20.7392 8.39323 20.6831C8.29648 20.6269 8.21628 20.5463 8.16075 20.4494C8.10521 20.3525 8.0763 20.2428 8.07691 20.1312C8.07753 20.0196 8.10766 19.9101 8.16427 19.8138C8.68976 18.9127 9.28635 17.264 9.28635 14.423L9.28636 13.7884Z" stroke="white" stroke-width="1.5" stroke-linecap="round" stroke-linejoin="round"/>
  <path d="M12.6923 20.7692V21.2308C12.6923 21.7204 12.9354 22.19 13.3682 22.5362C13.8009 22.8824 14.3879 23.0769 15 23.0769C15.612 23.0769 16.199 22.8824 16.6317 22.5362C17.0645 22.19 17.3076 21.7204 17.3076 21.2308V20.7692" stroke="white" stroke-width="1.5" stroke-linecap="round" stroke-linejoin="round"/>
</svg>