<svg width="1782" height="1135" viewBox="0 0 1782 1135" fill="none" xmlns="http://www.w3.org/2000/svg">
<path d="M157.952 726.764C159.047 698.592 158.658 670.382 156.787 642.251C152.617 584.162 143.758 526.506 130.296 469.844C122.894 437.963 113.801 406.605 104.301 375.277C104.01 374.315 102.494 374.578 102.756 375.569C132.103 486.018 156.175 599.966 154.513 714.787C154.047 746.844 150.317 778.463 147.286 810.403C147.286 811.249 148.598 811.598 148.802 810.724C154.834 783.301 156.816 754.683 157.952 726.764Z" fill="#EBEBEB"/>
<path d="M102.756 375.481C102.756 375.481 58.343 488.263 68.2806 514.666C78.2182 541.069 98.7345 546.722 98.7345 546.722C98.7345 546.722 71.5446 585.54 90.5455 621.939C109.546 658.338 151.745 656.619 154.659 697.884C154.571 698.088 156.903 525.536 102.756 375.481Z" fill="#EBEBEB"/>
<path d="M149.734 626.835C149.806 626.647 149.806 626.44 149.734 626.252C143.905 549.255 129.457 473.154 106.661 399.378C106.661 399.174 106.224 399.232 106.283 399.378C115.084 432.406 122.855 465.57 129.597 498.87C123.626 493.214 116.331 489.146 108.381 487.038C108.381 487.038 108.148 487.213 108.381 487.272C116.733 490.332 124.242 495.325 130.296 501.843C131.578 508.4 132.861 514.928 134.055 521.485C124.118 510.382 110.363 504.874 96.5781 499.628C96.5469 499.642 96.5204 499.664 96.5017 499.692C96.4831 499.721 96.4731 499.754 96.4731 499.788C96.4731 499.822 96.4831 499.856 96.5017 499.884C96.5204 499.913 96.5469 499.935 96.5781 499.949C110.945 505.777 125.225 513.296 134.959 525.681C138.339 544.391 141.312 563.168 143.876 582.014C136.701 574.496 127.499 569.222 117.386 566.831C117.065 566.831 116.89 567.209 117.211 567.297C127.6 570.356 136.874 576.371 143.906 584.607H144.08C144.955 591.213 145.79 597.848 146.587 604.512C141.036 599.814 134.769 596.036 128.023 593.321C127.848 593.321 127.731 593.525 128.023 593.583C134.907 596.565 141.211 600.738 146.645 605.911C146.645 605.911 146.791 605.911 146.878 605.911C147.607 612.235 148.335 618.558 148.976 624.882C138.969 612.785 125.982 603.504 111.295 597.955C111.233 597.955 111.174 597.979 111.13 598.023C111.087 598.067 111.062 598.126 111.062 598.188C111.062 598.25 111.087 598.309 111.13 598.353C111.174 598.396 111.233 598.421 111.295 598.421C125.798 604.813 138.536 614.622 148.423 627.01C148.531 627.146 148.678 627.246 148.844 627.298C149.01 627.35 149.188 627.351 149.355 627.301C150.317 637.006 151.191 646.71 151.891 656.444C151.891 656.589 152.124 656.589 152.124 656.444C151.366 646.671 150.569 636.802 149.734 626.835Z" fill="white"/>
<path d="M114.034 475.935C105.991 470.929 96.8026 468.061 87.3399 467.601C87.2935 467.601 87.2491 467.619 87.2163 467.652C87.1835 467.685 87.165 467.729 87.165 467.775C87.165 467.822 87.1835 467.866 87.2163 467.899C87.2491 467.932 87.2935 467.95 87.3399 467.95C96.4885 469.685 105.367 472.625 113.743 476.693C114.093 476.78 114.355 476.168 114.034 475.935Z" fill="white"/>
<path d="M119.426 595.332C113.244 591.784 106.437 589.459 99.3759 588.483C99.1427 588.483 99.1136 588.804 99.3759 588.862C106.271 590.245 112.94 592.58 119.193 595.798C119.455 595.944 119.688 595.478 119.426 595.332Z" fill="white"/>
<path d="M274.755 516.618C255.966 529.605 238.711 544.681 223.319 561.556C207.445 579.423 195.201 600.209 187.269 622.755C170.39 669.727 161.313 719.146 160.4 769.05C159.834 796.687 162.484 824.295 168.298 851.319C168.345 851.516 168.466 851.687 168.635 851.796C168.805 851.906 169.01 851.947 169.209 851.909C169.407 851.872 169.584 851.759 169.702 851.595C169.819 851.431 169.87 851.228 169.842 851.028C162.608 803.34 162.884 754.813 170.658 707.21C178.293 660.582 190.271 609.816 219.938 571.901C236.083 551.239 256.22 535.007 276.125 518.221C277.174 517.288 275.833 515.86 274.755 516.618Z" fill="#EBEBEB"/>
<path d="M166.928 735.42C177.623 718.122 190.191 702.055 204.405 687.51C226.641 665.274 245.351 649.479 248.265 634.791C251.179 620.103 226 609.262 226 609.262C226 609.262 256.745 614.799 265.168 601.889C273.59 588.979 277.64 514.199 277.64 514.199C277.64 514.199 221.687 554.154 195.604 610.165C169.522 666.177 166.928 735.42 166.928 735.42Z" fill="#EBEBEB"/>
<path d="M257.561 584.345C253.877 583.797 250.142 583.67 246.429 583.966C245.992 583.966 246.021 584.724 246.429 584.753C250.101 584.753 253.802 584.578 257.474 584.753C257.516 584.742 257.554 584.72 257.584 584.689C257.614 584.658 257.635 584.619 257.644 584.576C257.653 584.534 257.65 584.49 257.635 584.449C257.621 584.408 257.595 584.372 257.561 584.345Z" fill="white"/>
<path d="M217.374 656.881C211.465 657.001 205.625 658.165 200.122 660.32C200.122 660.32 200.122 660.611 200.122 660.582C205.95 659.212 211.575 658.659 217.345 657.668C217.42 657.635 217.485 657.581 217.531 657.513C217.577 657.445 217.603 657.366 217.606 657.283C217.609 657.201 217.589 657.12 217.548 657.049C217.507 656.978 217.447 656.919 217.374 656.881Z" fill="white"/>
<path d="M205.309 631.818C202.855 631.799 200.406 632.014 197.994 632.459C197.949 632.476 197.911 632.506 197.884 632.545C197.856 632.584 197.842 632.63 197.842 632.678C197.842 632.726 197.856 632.772 197.884 632.811C197.911 632.85 197.949 632.88 197.994 632.897C200.437 633.038 202.887 632.93 205.309 632.576C205.409 632.576 205.505 632.536 205.576 632.465C205.648 632.394 205.687 632.298 205.687 632.197C205.687 632.097 205.648 632 205.576 631.929C205.505 631.858 205.409 631.818 205.309 631.818Z" fill="white"/>
<path d="M2.88499 595.944C21.0967 602.118 38.5483 610.34 54.9043 620.453C71.8751 631.237 86.5921 645.211 98.2392 661.602C122.745 695.714 141.508 733.604 153.785 773.771C160.632 796.012 164.857 818.977 166.374 842.198C166.342 842.348 166.26 842.483 166.141 842.58C166.021 842.676 165.872 842.729 165.719 842.729C165.565 842.729 165.416 842.676 165.297 842.58C165.177 842.483 165.095 842.348 165.063 842.198C159.919 801.935 148.492 762.729 131.199 726.007C114.209 690.016 92.7895 651.723 60.0334 627.884C42.1982 614.916 22.1482 606.406 2.15643 597.43C1.1073 597.08 1.83586 595.594 2.88499 595.944Z" fill="#EBEBEB"/>
<path d="M140.729 748.097C128.068 736.577 114.181 726.482 99.3175 717.992C76.1784 705.141 57.3815 696.689 51.6404 685.469C45.8994 674.25 63.7637 659.678 63.7637 659.678C63.7637 659.678 40.1583 671.335 30.3665 662.738C20.5746 654.141 0 594.691 0 594.691C0 594.691 54.5256 614.07 88.5348 653.384C122.544 692.697 140.729 748.097 140.729 748.097Z" fill="#EBEBEB"/>
<path d="M95.4707 693.367C90.1098 692.993 84.7272 693.656 79.6172 695.32C79.6172 695.32 79.6172 695.582 79.6172 695.553C84.8304 694.659 90.0975 694.114 95.3833 693.921C95.7621 693.921 95.8495 693.396 95.4707 693.367Z" fill="white"/>
<path d="M47.9105 631.002C45.465 630.803 43.0038 630.94 40.5957 631.41C40.3334 631.41 40.4209 631.877 40.5957 631.848C43.0145 631.585 45.3751 631.673 47.7648 631.614C47.839 631.617 47.9119 631.594 47.9711 631.55C48.0303 631.505 48.0721 631.441 48.0893 631.368C48.1065 631.296 48.0981 631.22 48.0655 631.153C48.0328 631.087 47.9781 631.033 47.9105 631.002Z" fill="white"/>
<path d="M211.05 917.356H87.981L105.525 788.809L110.013 755.849H189.018L193.506 788.809L211.05 917.356Z" fill="#DBDBDB"/>
<path d="M193.506 788.809H105.525L110.013 755.849H189.018L193.506 788.809Z" fill="#C7C7C7"/>
<path d="M200.296 744.425H98.7056V772.343H200.296V744.425Z" fill="#DBDBDB"/>
<path d="M9.7334 917.356L231.245 916.657L452.757 916.394L895.781 915.899L1338.81 916.394L1560.32 916.657L1781.83 917.356L1560.32 918.085L1338.81 918.318L895.781 918.813L452.757 918.318L231.245 918.056L9.7334 917.356Z" fill="#263238"/>
<path d="M901.61 1134.56C1363.12 1134.56 1737.24 1093.56 1737.24 1042.99C1737.24 992.419 1363.12 951.424 901.61 951.424C440.103 951.424 65.9785 992.419 65.9785 1042.99C65.9785 1093.56 440.103 1134.56 901.61 1134.56Z" fill="#EBEBEB"/>
<path d="M707.084 1027.84C700.294 1030.14 505.593 1030.75 498.132 1026.15C495.218 1024.4 493.557 996.041 492.304 961.711C492.042 954.309 491.838 946.644 491.663 938.892L476.13 835.029L606.309 834.184L618.578 938.076L618.083 960.924C618.083 960.924 692.746 994.001 700.381 1000C708.017 1006.01 713.874 1025.53 707.084 1027.84Z" fill="#EB9481"/>
<path d="M707.084 1027.84C700.294 1030.14 505.593 1030.75 498.132 1026.15C494.694 1023.99 492.828 982.577 491.779 938.893L618.432 938.077L617.937 960.924C617.937 960.924 692.6 994.001 700.235 1000C707.871 1006.01 713.874 1025.53 707.084 1027.84Z" fill="white"/>
<path d="M707.084 1027.84C700.294 1030.14 505.593 1030.75 498.133 1026.15C495.218 1024.4 493.557 996.041 492.304 961.711L617.821 960.924C617.821 960.924 692.484 994.001 700.119 1000C707.754 1006.01 713.874 1025.53 707.084 1027.84Z" fill="#A6A6A6"/>
<path d="M704.257 1020.05C671.618 1019.35 539.894 1019.68 507.575 1021.48C507.312 1021.48 507.312 1021.66 507.575 1021.69C539.923 1023.06 671.647 1021.69 704.257 1020.58C704.957 1020.55 704.957 1020.05 704.257 1020.05Z" fill="#263238"/>
<path d="M687.675 993.039C684.046 992.958 680.439 993.631 677.083 995.015C673.727 996.4 670.695 998.466 668.179 1001.08C663.594 1005.75 661.002 1012.02 660.952 1018.57C660.952 1018.77 661.301 1018.77 661.33 1018.57C662.414 1012.12 665.554 1006.2 670.281 1001.68C675.008 997.163 681.068 994.295 687.559 993.506C687.62 993.521 687.686 993.511 687.741 993.479C687.795 993.446 687.835 993.393 687.85 993.331C687.866 993.269 687.856 993.203 687.823 993.149C687.79 993.094 687.737 993.055 687.675 993.039Z" fill="#263238"/>
<path d="M630.585 964.13C617.529 963.984 602.404 968.647 594.302 979.371C594.011 979.779 594.594 980.217 594.973 980.013C606.379 973.992 618.396 969.205 630.818 965.733C631.01 965.68 631.176 965.559 631.285 965.393C631.394 965.226 631.439 965.025 631.41 964.828C631.381 964.631 631.282 964.452 631.13 964.323C630.978 964.194 630.784 964.126 630.585 964.13Z" fill="#263238"/>
<path d="M640.727 968.006C627.642 968.006 612.517 972.552 604.444 983.247C604.124 983.685 604.706 984.122 605.114 983.918C616.505 977.875 628.512 973.078 640.93 969.609C641.12 969.557 641.284 969.438 641.394 969.275C641.503 969.111 641.549 968.914 641.524 968.719C641.499 968.524 641.405 968.344 641.258 968.213C641.112 968.082 640.923 968.009 640.727 968.006Z" fill="#263238"/>
<path d="M650.81 971.911C637.754 971.911 622.629 976.428 614.528 987.153C614.236 987.561 614.819 987.998 615.198 987.794C626.605 981.773 638.621 976.986 651.043 973.514C651.235 973.461 651.401 973.34 651.51 973.174C651.619 973.007 651.664 972.806 651.635 972.609C651.607 972.412 651.507 972.233 651.355 972.104C651.203 971.975 651.009 971.907 650.81 971.911Z" fill="#263238"/>
<path d="M660.923 975.816C647.838 975.671 632.713 980.333 624.64 991.058C624.32 991.466 624.932 991.903 625.31 991.699C636.715 985.673 648.732 980.886 661.156 977.419C661.348 977.367 661.514 977.246 661.623 977.079C661.732 976.912 661.776 976.712 661.748 976.515C661.719 976.318 661.619 976.138 661.467 976.009C661.315 975.881 661.122 975.812 660.923 975.816Z" fill="#263238"/>
<path d="M515.793 990.446C501.221 990.446 501.221 1013.32 515.793 1013.23C530.364 1013.15 530.48 990.358 515.793 990.446Z" fill="#263238"/>
<path d="M644.603 929.217C637.987 923.739 629.653 929.217 625.602 934.842C618.859 944.783 614.84 956.318 613.945 968.297C613.945 968.56 614.149 968.676 614.353 968.676C614.404 968.923 614.515 969.154 614.674 969.349C614.833 969.544 615.037 969.698 615.269 969.798C615.5 969.898 615.752 969.941 616.003 969.923C616.255 969.905 616.498 969.828 616.713 969.696C625.981 963.256 636.705 957.486 643.728 948.364C647.721 943.06 650.985 934.317 644.603 929.217ZM628.691 957.019C624.203 960.312 619.569 963.372 615.198 966.84C617.529 960.312 619.54 953.726 622.513 947.431C623.886 944.413 625.463 941.492 627.234 938.689C630.148 934.346 642.854 923.389 644.195 937.581C644.952 945.362 634.024 953.114 628.691 957.019Z" fill="#263238"/>
<path d="M581.422 973.252C592.788 974.942 604.532 971.678 615.694 969.9C615.936 969.837 616.16 969.718 616.348 969.553C616.536 969.387 616.683 969.18 616.776 968.948C616.87 968.715 616.907 968.464 616.886 968.215C616.865 967.965 616.786 967.724 616.655 967.511C616.698 967.478 616.732 967.436 616.755 967.388C616.779 967.34 616.791 967.287 616.791 967.234C616.791 967.18 616.779 967.128 616.755 967.08C616.732 967.032 616.698 966.99 616.655 966.957C607.687 958.959 596.772 953.461 585.006 951.016C578.129 949.705 568.395 951.599 567.521 960.138C566.472 968.181 574.777 972.203 581.422 973.252ZM573.495 965.85C564.752 954.659 581.451 953.697 586.464 954.863C589.716 955.676 592.909 956.708 596.022 957.952C602.396 960.595 608.631 963.562 614.703 966.84C609.166 967.394 603.716 968.385 598.208 969.143C591.622 970.017 578.391 971.999 573.495 965.85Z" fill="#263238"/>
<path d="M284.722 354.965C284.722 354.965 435.884 612.118 439.935 630.186C446.142 657.93 479.044 931.899 479.044 931.899L636.414 928.984C636.414 928.984 609.311 687.422 583.637 607.834C565.16 550.511 431.746 360.385 431.746 360.385L284.722 354.965Z" fill="#37474F"/>
<path d="M622.105 904.971C599.519 904.796 519.465 903.893 489.39 906.69C489.157 906.69 489.186 907.098 489.39 907.127C499.735 908.614 599.49 906.311 622.075 905.583C622.123 905.6 622.173 905.606 622.223 905.6C622.273 905.594 622.32 905.576 622.362 905.548C622.404 905.52 622.439 905.483 622.463 905.439C622.488 905.396 622.502 905.347 622.504 905.297C622.507 905.246 622.497 905.196 622.477 905.151C622.457 905.105 622.426 905.065 622.387 905.033C622.348 905.001 622.302 904.979 622.253 904.968C622.204 904.957 622.153 904.958 622.105 904.971Z" fill="#263238"/>
<path d="M310.513 378.57C320.422 394.103 330.913 409.315 340.997 424.732C351.08 440.148 361.221 455.565 371.217 470.952C391.151 502.037 410.579 533.326 429.502 564.82C438.737 579.418 446.638 594.819 453.108 610.836C459.013 626.856 463.451 643.38 466.367 660.203C469.457 677.077 471.497 694.125 473.391 711.173C475.334 729.3 477.364 747.436 479.482 765.582C483.62 802.71 487.768 839.837 491.925 876.965C492.421 881.511 492.916 886.057 493.383 890.633C493.383 891.303 492.246 891.419 492.159 890.633C487.525 853.767 483.678 816.756 479.482 779.891C477.383 761.493 475.295 743.104 473.216 724.724C471.263 707.618 469.398 690.482 466.746 673.492C464.313 656.722 460.611 640.16 455.672 623.95C450.231 607.165 442.939 591.037 433.932 575.865C415.718 544.42 396.426 513.529 377.133 482.609C357.841 451.689 338.024 420.506 317.683 389.965C315.176 386.205 312.641 382.446 310.018 378.745C309.814 378.541 310.339 378.279 310.513 378.57Z" fill="#263238"/>
<path d="M334.264 1042.99C327.095 1042.55 141.924 967.54 136.795 960.429C136.566 960.01 136.465 959.534 136.504 959.059C136.504 952.677 149.355 930.412 160.08 901.153C160.75 899.288 165.529 890.604 172.145 878.917C190.534 846.89 222.59 791.723 222.59 791.723L343.619 839.808L285.684 926.507L276.679 947.49C276.679 947.49 333.478 1006.21 338.257 1014.52C343.036 1022.82 341.404 1043.4 334.264 1042.99Z" fill="#EB9481"/>
<path d="M334.264 1042.99C327.095 1042.55 141.924 967.54 136.795 960.429C136.566 960.01 136.465 959.534 136.504 959.059C136.504 952.677 149.355 930.412 160.08 901.153C160.75 899.288 165.529 890.603 172.145 878.917L285.8 926.507L276.795 947.489C276.795 947.489 333.594 1006.21 338.373 1014.52C343.153 1022.82 341.404 1043.4 334.264 1042.99Z" fill="white"/>
<path d="M334.264 1042.99C327.095 1042.55 141.924 967.54 136.795 960.429C134.813 957.719 143.09 932.452 160.109 901.153L276.679 947.519C276.679 947.519 333.477 1006.18 338.286 1014.55C343.094 1022.91 341.404 1043.4 334.264 1042.99Z" fill="#A6A6A6"/>
<path d="M334.556 1034.71C304.568 1021.83 182.344 972.698 151.716 962.265C151.453 962.265 151.395 962.265 151.716 962.44C181.179 975.845 303.781 1023.99 334.439 1035.3C335.022 1035.44 335.197 1034.98 334.556 1034.71Z" fill="#263238"/>
<path d="M329.31 1003.44C325.985 1001.98 322.393 1001.23 318.761 1001.23C315.129 1001.23 311.536 1001.98 308.211 1003.44C302.232 1006.06 297.493 1010.88 294.98 1016.91C294.98 1017.08 295.243 1017.23 295.33 1017.05C298.766 1011.47 303.92 1007.14 310.02 1004.73C316.12 1002.32 322.837 1001.95 329.165 1003.68C329.214 1003.66 329.256 1003.63 329.283 1003.59C329.31 1003.54 329.319 1003.49 329.31 1003.44Z" fill="#263238"/>
<path d="M287.257 955.241C275.221 950.2 259.426 948.859 247.915 955.766C247.478 956.028 247.915 956.64 248.294 956.611C261.126 955.309 274.061 955.378 286.878 956.815C287.076 956.837 287.274 956.785 287.436 956.671C287.598 956.557 287.714 956.388 287.76 956.195C287.806 956.002 287.781 955.799 287.689 955.623C287.596 955.448 287.443 955.312 287.257 955.241Z" fill="#263238"/>
<path d="M295.155 962.644C283.119 957.602 267.324 956.262 255.813 963.168C255.376 963.431 255.813 964.043 256.192 964.013C269.023 962.697 281.959 962.765 294.776 964.217C294.974 964.239 295.172 964.188 295.334 964.074C295.496 963.959 295.612 963.79 295.658 963.597C295.704 963.404 295.679 963.201 295.586 963.026C295.494 962.85 295.341 962.714 295.155 962.644Z" fill="#263238"/>
<path d="M303.082 970.046C291.017 965.004 275.222 963.664 263.74 970.57C263.273 970.833 263.74 971.445 264.089 971.416C276.921 970.099 289.857 970.167 302.674 971.619C302.875 971.653 303.082 971.61 303.253 971.499C303.424 971.388 303.548 971.217 303.599 971.02C303.65 970.822 303.625 970.612 303.53 970.432C303.434 970.252 303.274 970.114 303.082 970.046Z" fill="#263238"/>
<path d="M310.979 977.448C298.914 972.407 283.148 971.066 271.637 977.944C271.171 978.235 271.637 978.847 271.987 978.818C284.818 977.502 297.754 977.57 310.571 979.022C310.773 979.056 310.979 979.013 311.15 978.902C311.322 978.791 311.445 978.62 311.496 978.422C311.547 978.225 311.523 978.015 311.427 977.835C311.331 977.654 311.172 977.517 310.979 977.448Z" fill="#263238"/>
<path d="M170.95 936.561C157.34 931.141 148.889 952.327 162.557 957.748C176.225 963.168 184.705 941.982 170.95 936.561Z" fill="#263238"/>
<path d="M313.34 928.139C309.231 920.591 299.526 922.456 293.61 926.216C283.645 932.892 275.606 942.066 270.297 952.823C270.273 952.87 270.261 952.922 270.26 952.974C270.26 953.027 270.271 953.079 270.294 953.127C270.316 953.174 270.349 953.216 270.39 953.249C270.431 953.283 270.478 953.306 270.53 953.318C270.53 954.28 271.171 955.416 272.307 955.183C283.352 952.648 295.446 951.336 305.355 945.508C311.038 942.127 317.216 935.279 313.34 928.139ZM288.132 947.927C282.74 949.296 277.32 950.404 271.987 951.977C276.398 946.663 281.077 941.576 286.004 936.736C288.43 934.426 291.01 932.284 293.727 930.325C297.953 927.41 313.923 922.019 309.843 935.687C307.599 943.235 294.572 946.295 288.132 947.927Z" fill="#263238"/>
<path d="M238.24 945.246C248.148 951.074 260.242 952.444 271.258 955.008C272.395 955.271 273.153 954.134 273.065 953.143C273.12 953.137 273.172 953.117 273.217 953.086C273.262 953.054 273.297 953.011 273.321 952.961C273.344 952.911 273.354 952.856 273.351 952.801C273.347 952.747 273.329 952.694 273.298 952.648C267.997 941.87 259.958 932.675 249.984 925.982C244.156 922.194 234.393 920.3 230.255 927.818C226.117 935.337 232.44 941.836 238.24 945.246ZM233.694 935.395C229.643 921.728 245.584 927.148 249.809 930.091C252.523 932.054 255.094 934.206 257.503 936.532C262.421 941.382 267.09 946.479 271.491 951.803C266.158 950.229 260.738 949.092 255.347 947.723C248.819 945.974 235.908 943.06 233.694 935.395Z" fill="#263238"/>
<path d="M295.097 921.669L159.613 866.969C159.613 866.969 327.591 619.986 328.814 601.598C329.922 585.336 256.133 443.645 253.248 402.35C250.101 357.762 271.55 323.287 295.155 301.867L434.893 361.289C434.893 361.289 420.147 384.865 397.008 398.008C397.008 398.008 468.669 561.789 464.589 612.147C460.509 662.505 295.097 921.669 295.097 921.669Z" fill="#37474F"/>
<path d="M301.1 895.907C281.517 887.485 287.258 889.613 267.557 881.336C257.94 877.315 194.701 850.999 184.968 848.813C184.764 848.813 184.618 849.105 184.822 849.221C193.244 854.379 257.008 879.588 266.712 883.435C286.558 891.245 280.934 888.797 300.867 896.374C300.897 896.414 300.937 896.445 300.982 896.465C301.027 896.485 301.077 896.494 301.127 896.489C301.176 896.485 301.224 896.468 301.265 896.44C301.306 896.412 301.339 896.374 301.361 896.329C301.383 896.285 301.394 896.235 301.392 896.186C301.389 896.136 301.374 896.088 301.348 896.046C301.322 896.003 301.286 895.969 301.242 895.944C301.199 895.92 301.15 895.907 301.1 895.907Z" fill="#263238"/>
<path d="M419.914 395.007C405.366 398.398 391.132 403.019 377.366 408.82C377.311 408.839 377.26 408.869 377.216 408.908C377.172 408.947 377.136 408.994 377.11 409.047C377.084 409.1 377.069 409.157 377.066 409.216C377.062 409.274 377.07 409.333 377.089 409.388C377.109 409.444 377.138 409.495 377.177 409.539C377.216 409.583 377.263 409.619 377.316 409.645C377.369 409.67 377.426 409.685 377.485 409.689C377.543 409.693 377.602 409.684 377.658 409.665C391.937 405.498 406.45 401.593 420.497 396.668C421.575 396.289 421.022 394.774 419.914 395.007Z" fill="#263238"/>
<path d="M403.274 389.353C401.916 391.768 400.718 394.27 399.689 396.843C398.683 398.795 398.06 400.922 397.853 403.108C397.853 403.545 398.436 403.633 398.698 403.37C400.16 401.622 401.34 399.655 402.195 397.542C403.39 395.24 404.614 392.967 405.751 390.606C406.538 388.887 404.177 387.779 403.274 389.353Z" fill="#263238"/>
<path d="M405.022 376.122C405.897 373.966 406.742 371.838 407.645 369.682C408.549 367.525 409.685 365.31 410.559 363.037C410.559 362.688 411.259 363.037 411.113 363.3C410.239 365.456 409.685 367.729 409.015 369.944C408.345 372.159 407.587 374.374 406.858 376.589C405.489 380.698 403.944 384.778 402.05 388.77C404.343 388.885 406.633 388.486 408.753 387.604C410.918 386.219 412.582 384.176 413.503 381.776C414.727 379.386 415.863 376.938 417.116 374.549C418.659 371.965 419.957 369.243 420.992 366.418C420.992 366.068 421.692 366.418 421.546 366.68C419.646 372.653 417.157 378.423 414.115 383.903C412.803 386.031 411.783 388.275 409.394 389.091C406.807 389.814 404.1 390.002 401.438 389.644C401.088 389.644 400.68 389.644 400.797 389.12C401.99 384.72 403.4 380.382 405.022 376.122Z" fill="#263238"/>
<path d="M399.077 403.341C404.06 413.862 408.432 424.353 413.066 434.844C417.699 445.336 421.808 455.477 425.976 465.91C434.31 486.951 441.771 508.4 448.328 530.024C451.563 540.748 454.564 551.56 457.246 562.459C460.199 573.324 462.361 584.388 463.715 595.565C464.884 606.724 463.895 618.003 460.801 628.788C457.587 639.448 453.463 649.812 448.474 659.766C445.414 666.061 444.394 665.216 445.851 662.039C450.018 653.005 460.947 625.64 460.16 602.647C459.522 591.639 457.824 580.718 455.089 570.036C452.544 559.02 449.678 548.092 446.492 537.251C440.285 515.86 432.912 494.907 425.335 473.983C421.08 462.326 416.592 450.669 412.22 439.012C407.849 427.355 403.478 416.63 398.582 403.749C398.436 403.225 398.931 403.021 399.077 403.341Z" fill="#263238"/>
<path d="M296.233 368.574C298.652 367.671 302.062 369.157 304.51 369.565C307.68 370.103 310.884 370.424 314.098 370.527C317.278 370.639 320.462 370.532 323.627 370.206C326.815 370.124 329.939 369.296 332.749 367.787C337.359 364.429 341.311 360.25 344.406 355.46C348.095 350.565 351.14 345.218 353.469 339.548C353.469 339.199 354.081 339.548 353.965 339.781C352.945 343.016 352.187 346.28 351.05 349.457C349.794 352.441 348.293 355.317 346.562 358.054C343.757 363.561 339.607 368.272 334.498 371.751C328.873 374.956 321.646 374.665 315.38 374.403C311.746 374.191 308.133 373.714 304.568 372.975C302.004 372.421 297.691 372.013 296.059 369.769C295.982 369.683 295.925 369.582 295.892 369.471C295.859 369.361 295.85 369.245 295.867 369.131C295.883 369.017 295.925 368.908 295.988 368.812C296.052 368.716 296.135 368.634 296.233 368.574Z" fill="#263238"/>
<path d="M198.285 841.061C220.55 807.334 242.407 773.334 263.856 739.063C285.305 704.791 306.462 670.257 327.328 635.461C332.312 627.155 338.053 618.879 341.258 609.67C344.755 599.674 342.774 589.97 339.626 580.178C333.683 562.315 326.736 544.801 318.819 527.721C311.008 510.498 302.586 493.566 294.31 476.576C286.033 459.586 277.378 442.8 270.996 425.081C265.167 408.15 262.807 390.606 267.353 373.062C271.899 355.518 281.691 340.015 291.92 325.414C294.601 321.567 297.37 317.75 300.08 313.757C300.284 313.466 300.721 313.757 300.517 314.107C289.239 329.319 278.252 345.435 271.637 363.299C268.256 372.105 266.365 381.412 266.042 390.839C265.986 400.408 267.472 409.923 270.442 419.02C275.921 436.738 284.576 453.495 292.649 470.165C300.721 486.834 309.347 504.087 317.303 521.252C325.511 538.527 332.807 556.222 339.16 574.262C341.87 582.276 344.989 590.669 344.755 599.266C344.551 608.679 340.063 617.16 335.401 625.086C315.001 659.62 294.106 693.746 272.832 727.668C251.558 761.59 229.672 795.512 207.523 829.084L199.13 841.761C198.693 842.285 197.936 841.673 198.285 841.061Z" fill="#263238"/>
<path d="M442.645 204.211C455.264 231.896 518.999 270.044 548.84 274.153C570.289 277.067 635.51 278.116 657.862 274.707C684.091 270.685 664.041 200.014 648.566 201.85C606.018 206.805 569.881 212.342 558.516 212.342C544.644 212.342 469.602 188.27 460.568 184.86C438.42 176.613 435.505 188.503 442.645 204.211Z" fill="#EB9481"/>
<path d="M443.053 211.584C459.023 235.218 512.092 273.861 512.092 273.861L519.465 257.542L543.857 203.57C543.857 203.57 495.102 188.27 463.016 181.276C459.24 180.416 455.399 179.87 451.534 179.644C431.046 178.536 429.269 191.184 443.053 211.584Z" fill="#EBEBEB"/>
<path d="M443.053 211.584C459.023 235.218 512.092 273.861 512.092 273.861L519.465 257.542C499.677 234.548 469.107 199.723 451.534 179.702C431.046 178.536 429.269 191.184 443.053 211.584Z" fill="#263238"/>
<path d="M502.533 262.904C506.584 252.966 524.594 212.953 529.082 204.619C529.373 204.036 529.839 204.094 529.577 204.619C521.765 224.517 512.873 243.974 502.941 262.904C502.824 263.253 502.358 263.137 502.533 262.904Z" fill="#263238"/>
<path d="M640.756 202.579C666.634 199.198 698.662 193.399 725.794 204.91C728.841 206.106 731.397 208.292 733.05 211.118C745.29 216.072 746.631 223.328 746.631 223.328C756.626 231.43 756.976 239.065 756.976 239.065C756.976 239.065 771.314 244.894 769.129 254.278C766.739 264.652 747.097 254.278 732.817 255.123C700.032 257.163 654.132 269.198 644.661 270.714L640.756 202.579Z" fill="#EB9481"/>
<path d="M696.972 233.12C706.558 232.464 716.178 232.464 725.765 233.12C736.204 234.43 746.531 236.524 756.656 239.386C756.721 239.409 756.793 239.405 756.856 239.375C756.919 239.345 756.968 239.291 756.991 239.225C757.014 239.16 757.01 239.087 756.98 239.025C756.95 238.962 756.896 238.913 756.83 238.89C737.809 231.427 717.103 229.33 696.972 232.829C696.506 232.77 696.506 233.149 696.972 233.12Z" fill="#263238"/>
<path d="M690.881 202.841C706.88 203.657 716.876 206.222 732.963 211.059V210.884C715.244 203.482 707.988 202.783 690.793 202.142C690.24 202.375 690.269 202.841 690.881 202.841Z" fill="#263238"/>
<path d="M693.474 260.077C689.307 262.029 690.327 264.215 698.283 266.051C706.239 267.887 739.315 268.441 738.15 279.981C736.984 291.522 690.327 290.065 677.3 285.985C664.274 281.905 644.661 270.714 644.661 270.714C653.899 269.169 675.581 263.312 693.474 260.077Z" fill="#EB9481"/>
<path d="M477.296 248.332C477.092 253.316 476.625 258.387 475.926 263.428C475.926 263.224 475.926 263.049 476.13 262.875C477.092 260.252 478.053 257.571 479.219 255.035C479.219 255.035 479.51 255.035 479.481 255.035C478.921 257.813 478.081 260.528 476.975 263.137C476.45 264.39 475.955 265.614 475.401 266.838C475.052 269.082 474.644 271.297 474.206 273.512C473.332 277.679 469.398 295.398 468.378 298.399C468.203 299.011 467.445 298.866 467.504 298.166C467.708 294.902 471.001 276.455 471.671 272.258C472.973 264.156 474.714 256.13 476.888 248.216C477.033 248.07 477.325 248.187 477.296 248.332Z" fill="#263238"/>
<path d="M446.987 380.843C439.206 384.836 429.181 391.043 384.011 382.155C381.096 381.572 378.357 380.872 375.501 380.027C333.157 367.321 282.245 317.517 279.477 313.99C279.477 313.99 346.767 204.91 432.824 170.609C443.461 166.384 461.063 174.544 470.709 184.714C474.177 188.357 481.725 215.139 478.84 236.821C475.955 258.503 454.739 376.851 446.987 380.843Z" fill="#EBEBEB"/>
<path d="M440.926 235.83C441.251 240.44 440.606 245.066 439.032 249.411C438.662 244.8 439.309 240.164 440.926 235.83Z" fill="white"/>
<path d="M411.579 310.115C411.765 312.408 411.687 314.716 411.346 316.992C411.066 319.285 410.508 321.536 409.685 323.695C409.484 321.392 409.563 319.073 409.918 316.788C410.216 314.508 410.773 312.269 411.579 310.115Z" fill="white"/>
<path d="M361.717 253.957C362.045 258.576 361.399 263.213 359.822 267.567C359.456 262.946 360.103 258.302 361.717 253.957Z" fill="white"/>
<path d="M460.131 306.326C460.317 308.63 460.238 310.947 459.897 313.233C459.617 315.526 459.059 317.777 458.236 319.935C458.036 317.632 458.114 315.313 458.469 313.029C458.764 310.738 459.321 308.489 460.131 306.326Z" fill="white"/>
<path d="M396.104 244.34C398.397 244.145 400.705 244.213 402.982 244.544C405.276 244.835 407.527 245.402 409.685 246.234C405.075 246.565 400.448 245.92 396.104 244.34Z" fill="white"/>
<path d="M339.51 297.991C344.119 297.666 348.746 298.312 353.09 299.886C348.479 300.255 343.844 299.608 339.51 297.991Z" fill="white"/>
<path d="M406.188 356.072C410.798 355.741 415.425 356.387 419.768 357.966C415.158 358.33 410.523 357.684 406.188 356.072Z" fill="white"/>
<path d="M322.054 334.973C326.663 334.648 331.289 335.293 335.634 336.867C331.023 337.231 326.389 336.585 322.054 334.973Z" fill="white"/>
<path d="M440.489 183.607C445.098 183.282 449.725 183.927 454.069 185.501C449.46 185.826 444.833 185.181 440.489 183.607Z" fill="white"/>
<path d="M424.023 202.2C422.55 203.971 420.867 205.556 419.011 206.921C417.205 208.317 415.25 209.51 413.182 210.476C414.646 208.717 416.308 207.132 418.136 205.755C419.959 204.354 421.934 203.161 424.023 202.2Z" fill="white"/>
<path d="M334.293 255.035C332.802 256.791 331.11 258.366 329.252 259.727C327.464 261.15 325.506 262.344 323.423 263.282C324.923 261.534 326.614 259.96 328.465 258.591C330.257 257.174 332.214 255.98 334.293 255.035Z" fill="white"/>
<path d="M446.346 278.874C444.855 280.639 443.163 282.223 441.305 283.595C439.513 285.012 437.556 286.205 435.476 287.15C436.967 285.385 438.659 283.801 440.518 282.429C442.319 281.027 444.275 279.834 446.346 278.874Z" fill="white"/>
<path d="M373.782 324.569C372.291 326.334 370.599 327.918 368.74 329.29C366.945 330.703 364.989 331.896 362.912 332.846C364.402 331.081 366.094 329.496 367.953 328.124C369.755 326.722 371.71 325.529 373.782 324.569Z" fill="white"/>
<path d="M474.148 216.451C472.658 218.215 470.966 219.8 469.107 221.172C467.301 222.568 465.346 223.761 463.278 224.727C464.769 222.962 466.461 221.378 468.32 220.006C470.115 218.594 472.071 217.4 474.148 216.451Z" fill="white"/>
<path d="M472.633 269.402C470.868 267.912 469.284 266.22 467.912 264.361C466.493 262.57 465.299 260.613 464.356 258.532C466.128 260.005 467.713 261.689 469.078 263.545C470.47 265.364 471.662 267.328 472.633 269.402Z" fill="white"/>
<path d="M310.892 305.889C309.127 304.398 307.543 302.706 306.171 300.847C304.769 299.046 303.576 297.09 302.616 295.019C304.381 296.51 305.965 298.202 307.337 300.06C308.749 301.855 309.943 303.812 310.892 305.889Z" fill="white"/>
<path d="M452.962 349.282C451.19 347.809 449.605 346.125 448.24 344.269C446.844 342.464 445.652 340.509 444.685 338.441C446.45 339.932 448.034 341.624 449.406 343.483C450.812 345.271 452.006 347.217 452.962 349.282Z" fill="white"/>
<path d="M381.767 225.572C380.002 224.092 378.418 222.409 377.046 220.56C375.655 218.75 374.463 216.796 373.49 214.731C375.261 216.204 376.847 217.888 378.211 219.744C379.602 221.554 380.794 223.508 381.767 225.572Z" fill="white"/>
<path d="M383.02 373.995C381.255 372.504 379.67 370.812 378.299 368.953C376.9 367.149 375.708 365.194 374.743 363.125C376.514 364.598 378.1 366.281 379.464 368.137C380.867 369.949 382.059 371.914 383.02 373.995Z" fill="white"/>
<path d="M395.114 286.451C393.366 284.952 391.792 283.261 390.422 281.409C388.999 279.622 387.805 277.664 386.867 275.581C388.622 277.072 390.197 278.764 391.559 280.622C392.975 282.414 394.169 284.371 395.114 286.451Z" fill="white"/>
<path d="M454.943 213.77C443.956 211.73 433.64 189.028 432.329 173.757C432.329 172.708 437.458 164.402 443.315 153.998C446.871 147.674 450.63 140.535 453.632 133.773C454.244 132.404 457.828 137.037 457.828 137.037L465.638 142.866L491.43 162.654C485.288 170.023 480.072 178.117 475.897 186.754C475.484 187.69 475.172 188.667 474.964 189.669C474.953 189.834 474.953 189.999 474.964 190.164C473.361 195.934 465.522 215.722 454.943 213.77Z" fill="#EB9481"/>
<path d="M474.964 189.814C474.953 189.979 474.953 190.145 474.964 190.31C473.433 189.861 471.942 189.286 470.506 188.59C442.267 175.36 454.71 137.533 454.71 137.533L465.784 143.012L491.576 162.799C485.434 170.169 480.218 178.263 476.043 186.9C475.58 187.83 475.219 188.807 474.964 189.814Z" fill="#263238"/>
<path d="M521.067 82.1328C521.067 82.1328 533.977 90.3218 534.036 104.893C534.094 119.464 528.207 133.715 526.983 134.24C525.759 134.764 521.067 82.1328 521.067 82.1328Z" fill="#263238"/>
<path d="M457.012 89.71C449.261 105.01 449.669 153.241 459.344 165.655C473.391 183.665 500.435 189.873 516.784 172.067C532.608 154.814 530.976 91.9831 519.698 80.2678C503.291 62.9572 468.495 67.0663 457.012 89.71Z" fill="#EB9481"/>
<path d="M498.161 128.324C498.161 128.324 497.899 128.499 497.928 128.615C498.103 131.908 497.753 135.697 494.81 136.862C494.81 136.862 494.81 137.066 494.81 137.037C498.453 136.454 498.861 131.413 498.161 128.324Z" fill="#263238"/>
<path d="M495.16 124.972C489.856 124.681 489.681 135.289 494.606 135.551C499.531 135.813 499.59 125.206 495.16 124.972Z" fill="#263238"/>
<path d="M516.142 128.207C516.142 128.207 516.405 128.207 516.405 128.499C516.23 131.792 516.609 135.58 519.581 136.717C519.581 136.717 519.581 136.921 519.581 136.892C515.909 136.338 515.472 131.296 516.142 128.207Z" fill="#263238"/>
<path d="M519.144 124.827C524.419 124.506 524.681 135.114 519.785 135.405C514.889 135.697 514.715 125.089 519.144 124.827Z" fill="#263238"/>
<path d="M491.838 116.9C493.23 116.504 494.602 116.037 495.947 115.501C497.478 115.224 498.872 114.445 499.91 113.286C500.162 112.862 500.267 112.367 500.209 111.877C500.151 111.387 499.934 110.93 499.59 110.576C498.801 109.976 497.867 109.598 496.883 109.48C495.9 109.363 494.902 109.509 493.994 109.906C492.028 110.432 490.326 111.667 489.215 113.374C488.993 113.78 488.893 114.241 488.925 114.702C488.957 115.163 489.121 115.606 489.397 115.977C489.673 116.348 490.05 116.632 490.482 116.796C490.915 116.959 491.385 116.996 491.838 116.9Z" fill="#263238"/>
<path d="M522.758 121.592C521.34 121.275 519.94 120.886 518.562 120.426C517.026 120.223 515.601 119.516 514.511 118.415C514.23 118.01 514.094 117.522 514.126 117.03C514.158 116.538 514.355 116.071 514.686 115.705C515.437 115.062 516.348 114.634 517.322 114.465C518.297 114.296 519.298 114.392 520.223 114.743C522.216 115.156 523.983 116.3 525.177 117.949C525.427 118.339 525.557 118.794 525.554 119.257C525.55 119.72 525.411 120.173 525.155 120.559C524.898 120.945 524.535 121.248 524.11 121.431C523.684 121.615 523.215 121.67 522.758 121.592Z" fill="#263238"/>
<path d="M490.701 159.477C491.488 160.264 492.246 161.313 493.441 161.43C494.666 161.429 495.877 161.171 496.996 160.672C496.996 160.672 497.2 160.672 496.996 160.847C496.519 161.487 495.876 161.986 495.136 162.289C494.397 162.592 493.589 162.687 492.8 162.566C492.134 162.385 491.536 162.012 491.08 161.494C490.624 160.976 490.331 160.335 490.235 159.652C490.212 159.59 490.214 159.522 490.242 159.461C490.269 159.401 490.319 159.354 490.381 159.331C490.443 159.308 490.511 159.31 490.571 159.338C490.631 159.365 490.678 159.415 490.701 159.477Z" fill="#263238"/>
<path d="M509.76 145.43C509.76 145.43 509.906 150.326 509.76 152.628C505.282 152.153 500.76 152.31 496.326 153.095C495.277 153.328 495.393 152.483 496.588 151.929C500.16 150.297 504.138 149.769 508.012 150.414C508.245 149.802 507.633 142.837 508.012 142.866C509.775 143.212 511.481 143.8 513.083 144.614C513.083 134.356 511.451 124.215 511.596 113.956C511.596 113.607 512.15 113.548 512.208 113.956C514.279 124.808 515.256 135.841 515.123 146.887C515.152 148.141 510.635 145.897 509.76 145.43Z" fill="#263238"/>
<path d="M503.203 150.88C502.042 153.936 499.886 156.512 497.083 158.195C492.683 159.973 491.255 155.98 495.685 152.366C498.008 151.192 500.608 150.678 503.203 150.88Z" fill="#263238"/>
<path d="M498.628 157.291C498.162 157.67 497.641 157.975 497.083 158.195C493.032 159.827 491.43 156.592 494.693 153.328C496.908 153.503 499.444 154.319 498.628 157.291Z" fill="#FF99BA"/>
<path d="M454.798 130.947C460.131 132.579 466.251 116.55 467.999 110.547C469.515 105.126 471.263 87.9031 471.525 86.7083C471.788 85.5135 494.839 101.95 508.187 98.0447C521.534 94.1396 530.597 82.0455 530.801 76.421C531.005 70.7965 514.307 56.5167 499.881 55.7881C485.456 55.0596 465.901 73.2736 465.901 73.2736C468.263 70.5931 470.407 67.728 472.312 64.7057C472.079 64.0646 462.754 67.7948 461.034 74.4393C461.034 74.4393 462.899 66.0754 462.2 65.9297C461.5 65.784 454.244 72.9239 455.876 78.3444C455.876 78.3444 447.483 85.6009 446.725 93.5568C445.968 101.513 448.532 129.023 454.798 130.947Z" fill="#263238"/>
<path d="M517.745 95.014C513.776 97.1663 509.501 98.6994 505.068 99.5602C500.093 100.004 495.085 99.2028 490.497 97.2289C485.875 95.4432 481.581 92.9024 477.791 89.7101C474.44 86.9707 471.438 83.6193 467.853 81.1713C466.95 80.5302 465.93 81.8416 466.484 82.6576C472.464 91.1047 481.007 97.3998 490.847 100.609C495.417 102.099 500.295 102.378 505.005 101.417C509.715 100.457 514.094 98.2909 517.716 95.1306C517.716 95.1306 517.803 95.014 517.745 95.014Z" fill="#263238"/>
<path d="M460.364 129.519C460.364 129.519 452.088 112.733 444.627 115.443C437.167 118.153 441.713 141.38 449.377 145.634C450.316 146.242 451.368 146.653 452.47 146.844C453.572 147.036 454.7 147.002 455.789 146.746C456.878 146.491 457.903 146.018 458.805 145.356C459.706 144.694 460.464 143.857 461.034 142.895L460.364 129.519Z" fill="#EB9481"/>
<path d="M446.113 122.058C446.113 122.058 445.939 122.058 446.113 122.291C451.417 125.439 453.574 131.034 454.856 136.862C454.615 136.245 454.242 135.688 453.764 135.229C453.286 134.77 452.714 134.421 452.088 134.205C451.462 133.989 450.796 133.911 450.137 133.977C449.477 134.044 448.841 134.253 448.27 134.589C448.095 134.589 448.27 134.91 448.27 134.91C449.312 134.748 450.38 134.913 451.324 135.383C452.269 135.852 453.045 136.604 453.545 137.533C454.379 139.089 455.043 140.73 455.526 142.429C455.701 142.982 456.663 142.837 456.575 142.225C457.829 134.968 453.749 123.982 446.113 122.058Z" fill="#263238"/>
<path d="M405.722 204.473C399.893 237.492 435.68 348.728 458.615 369.507C492.741 400.398 555.835 420.71 578.712 427.326C588.678 430.24 616.247 360.094 606.164 355.46C584.569 345.639 517.483 324.657 511.101 319.411C504.719 314.165 466.251 258.591 449.115 226.592C426.18 183.52 408.607 187.774 405.722 204.473Z" fill="#EB9481"/>
<path d="M589.173 349.282C589.173 349.282 618.957 356.888 638.162 362.746C648.886 366.039 666.78 373.295 673.57 379.299C683.712 388.304 720.373 432.367 709.882 441.489C700.381 449.765 673.687 407.888 673.687 407.888C673.687 407.888 704.345 447.754 691.172 455.594C678 463.433 653.899 412.113 653.899 412.113C653.899 412.113 684.469 453.787 669.519 459.703C658.212 464.162 633.965 418.903 633.965 418.903C633.965 418.903 660.019 454.894 648.537 459.994C635.889 465.648 610.914 425.256 610.914 425.256C579.673 433.329 561.372 424.382 549.336 416.514C546.509 414.59 589.173 349.282 589.173 349.282Z" fill="#EB9481"/>
<path d="M663.953 393.404C667.742 397.95 671.588 402.554 674.94 407.421C678.291 412.288 681.468 417.301 684.353 422.459C688.262 429.131 691.391 436.23 693.678 443.616C688.666 430.794 676.921 413.162 673.57 408.296C670.219 403.429 667.1 398.387 663.778 393.52C663.691 393.404 663.866 393.287 663.953 393.404Z" fill="#263238"/>
<path d="M646.147 405.206C652.617 410.335 666.168 429.395 671.385 442.188C671.618 442.713 671.385 442.684 671.006 442.188C666.926 435.864 650.373 411.385 646.002 405.294C645.914 405.206 646.06 405.119 646.147 405.206Z" fill="#263238"/>
<path d="M629.04 412.667C637.079 421.099 643.43 430.991 647.75 441.809C647.954 442.334 647.546 442.247 647.225 441.809C641.193 431.988 636.53 424.324 628.72 412.929C628.603 412.667 628.866 412.405 629.04 412.667Z" fill="#263238"/>
<path d="M438.245 206.892C411.638 169.269 395.726 183.199 401.059 224.057C406.072 262.263 419.448 307.783 419.448 307.783L486.476 275.26C486.476 275.26 455.177 230.993 438.245 206.892Z" fill="#EBEBEB"/>
<path d="M454.419 221.696C455.302 223.821 455.938 226.041 456.313 228.312C456.722 230.59 456.869 232.907 456.75 235.218C455.876 233.082 455.25 230.853 454.885 228.574C454.452 226.309 454.295 223.999 454.419 221.696Z" fill="white"/>
<path d="M414.698 244.573C418.975 242.833 423.578 242.038 428.191 242.242C426.065 243.116 423.845 243.741 421.575 244.107C419.31 244.539 417.001 244.696 414.698 244.573Z" fill="white"/>
<path d="M416.417 186.055C414.612 190.314 411.92 194.139 408.52 197.275C410.324 193.016 413.017 189.191 416.417 186.055Z" fill="white"/>
<path d="M473.216 262.146C472.331 264.277 471.206 266.301 469.864 268.178C468.557 270.08 467.031 271.821 465.318 273.366C467.123 269.107 469.815 265.282 473.216 262.146Z" fill="white"/>
<path d="M426.588 284.964C424.451 284.09 422.426 282.965 420.555 281.613C418.653 280.307 416.912 278.781 415.368 277.067C419.627 278.872 423.452 281.564 426.588 284.964Z" fill="white"/>
<path d="M446.987 218.228C450.572 223.153 454.273 227.962 457.945 232.8C457.012 230.352 456.196 227.874 455.497 225.368H455.672C456.4 227.292 457.245 229.186 457.945 231.197L458.994 234.111C459.084 234.31 459.162 234.514 459.227 234.723C462.141 238.482 465.056 242.242 467.737 246.088C471.03 250.693 474.206 255.356 477.412 260.019C480.618 264.681 483.852 270.481 487.32 275.173C487.641 275.581 481.492 278.087 480.822 278.407C480.151 278.728 479.802 278.174 480.443 277.97C481.084 277.766 485.98 274.765 486.038 274.706C482.832 269.985 479.131 265.643 475.78 261.068C472.429 256.492 469.106 251.917 465.872 247.283C459.314 237.841 453.311 228.049 446.783 218.578L446.987 218.228Z" fill="#263238"/>
<path d="M402.633 251.101C403.653 253.083 404.76 255.035 405.547 257.075L406.654 259.611C405.11 252.354 403.74 245.039 402.137 237.783C405.226 249.44 408.345 261.359 411.201 273.191C413.911 284.498 417.204 295.922 418.778 307.463C420.81 306.571 422.916 305.859 425.072 305.335C422.908 306.736 420.578 307.862 418.136 308.687C414.623 296.951 411.705 285.046 409.394 273.016C408.665 269.752 407.995 266.488 407.295 263.224C406.538 261.243 405.634 259.348 404.731 257.396C403.827 255.443 403.011 253.258 402.196 251.188C402.37 251.072 402.574 250.955 402.633 251.101Z" fill="#263238"/>
<path d="M420.439 296.534C429.764 291.288 468.728 271.122 477.441 267.392C478.053 267.129 478.374 267.392 477.762 267.8C459.267 278.547 440.199 288.275 420.643 296.942C420.409 297 420.176 296.68 420.439 296.534Z" fill="#263238"/>
<path d="M1488.31 1062.69H600.393L728.766 334.565H1616.68L1488.31 1062.69Z" fill="#EBEBEB"/>
<path d="M1032.66 259.144H742.084L728.766 334.565H1039.74L1032.66 259.144Z" fill="#EBEBEB"/>
<g opacity="0.1">
<path d="M1488.31 1062.69H600.393L728.766 334.565H1616.68L1488.31 1062.69Z" fill="black"/>
<path d="M1032.66 259.144H742.084L728.766 334.565H1039.74L1032.66 259.144Z" fill="black"/>
</g>
<path d="M710.726 289.919C708.783 281.579 708.783 272.904 710.726 264.565C712.669 272.904 712.669 281.579 710.726 289.919Z" fill="#263238"/>
<path d="M684.906 297.379C681.939 294.302 679.382 290.854 677.3 287.121C675.116 283.466 673.403 279.549 672.2 275.464C675.176 278.523 677.734 281.962 679.806 285.693C681.986 289.361 683.699 293.287 684.906 297.379Z" fill="#263238"/>
<path d="M666.255 316.759C658.066 314.269 650.559 309.932 644.311 304.082C648.397 305.27 652.314 306.974 655.968 309.153C659.701 311.248 663.158 313.804 666.255 316.759Z" fill="#263238"/>
<path d="M659.727 342.871C651.387 344.814 642.713 344.814 634.373 342.871C642.713 340.928 651.387 340.928 659.727 342.871Z" fill="#263238"/>
<path d="M667.304 368.691C664.214 371.643 660.768 374.198 657.046 376.297C653.392 378.476 649.475 380.18 645.389 381.368C648.466 378.401 651.914 375.844 655.647 373.762C659.296 371.572 663.215 369.867 667.304 368.691Z" fill="#263238"/>
<path d="M686.655 387.313C684.174 395.514 679.836 403.033 673.978 409.286C675.165 405.196 676.879 401.277 679.078 397.629C681.155 393.883 683.701 390.416 686.655 387.313Z" fill="#263238"/>
<path d="M712.767 393.753C713.783 397.901 714.272 402.16 714.224 406.43C714.287 410.701 713.797 414.962 712.767 419.107C711.722 414.965 711.232 410.702 711.31 406.43C711.261 402.16 711.751 397.901 712.767 393.753Z" fill="#263238"/>
<path d="M738.587 386.439C741.554 389.516 744.111 392.964 746.193 396.697C748.383 400.346 750.087 404.264 751.264 408.354C745.406 402.101 741.068 394.582 738.587 386.38V386.439Z" fill="#263238"/>
<path d="M757.209 366.913C761.299 368.09 765.217 369.794 768.866 371.984C772.599 374.066 776.047 376.623 779.124 379.59C775.035 378.414 771.116 376.709 767.467 374.519C763.734 372.437 760.286 369.88 757.209 366.913Z" fill="#263238"/>
<path d="M763.649 340.802C771.999 338.859 780.683 338.859 789.032 340.802C780.683 342.744 771.999 342.744 763.649 340.802Z" fill="#263238"/>
<path d="M756.189 314.981C759.274 312.032 762.721 309.486 766.447 307.404C770.088 305.193 774.009 303.478 778.104 302.304C771.851 308.162 764.332 312.5 756.13 314.981H756.189Z" fill="#263238"/>
<path d="M736.809 296.359C738.009 292.278 739.712 288.362 741.88 284.702C743.962 280.969 746.519 277.521 749.486 274.444C748.31 278.534 746.605 282.452 744.415 286.101C742.333 289.834 739.776 293.282 736.809 296.359Z" fill="#263238"/>
<path d="M1486.99 1062.69H597.188L470.826 360.997H1360.66L1486.99 1062.69Z" fill="#080D2D"/>
<path d="M779.182 789.945C799.606 789.945 816.164 773.388 816.164 752.963C816.164 732.539 799.606 715.982 779.182 715.982C758.758 715.982 742.2 732.539 742.2 752.963C742.2 773.388 758.758 789.945 779.182 789.945Z" fill="white"/>
<path d="M1071.54 789.945C1091.96 789.945 1108.52 773.388 1108.52 752.963C1108.52 732.539 1091.96 715.982 1071.54 715.982C1051.11 715.982 1034.56 732.539 1034.56 752.963C1034.56 773.388 1051.11 789.945 1071.54 789.945Z" fill="white"/>
<path d="M978.487 795.861L976.447 791.985C976.273 791.636 957.155 756.315 918.716 756.315C883.745 756.315 875.003 789.567 874.769 790.995L873.72 795.22L865.24 793.18L866.26 788.925C866.26 788.517 876.693 747.572 918.716 747.572C962.43 747.572 983.325 786.273 984.199 787.935L986.239 791.781L978.487 795.861Z" fill="white"/>
<path d="M724.744 81.375C723.348 94.7606 718.259 107.495 710.047 118.157C701.834 128.819 690.82 136.989 678.234 141.755C665.648 146.522 651.986 147.697 638.771 145.151C625.555 142.604 613.308 136.435 603.395 127.333L567.054 132.666L585.239 101.25C581.081 91.0281 579.306 79.9928 580.051 68.9823C580.796 57.9719 584.04 47.276 589.537 37.7071C595.035 28.1381 602.64 19.9479 611.777 13.7584C620.913 7.56892 631.34 3.54302 642.265 1.9865C653.191 0.429987 664.327 1.3838 674.828 4.77548C685.33 8.16716 694.92 13.9075 702.871 21.5605C710.822 29.2135 716.924 38.5778 720.714 48.9421C724.504 59.3065 725.882 70.3983 724.744 81.375Z" fill="white"/>
<path d="M724.744 81.3752C723.377 94.7538 718.334 107.493 710.173 118.182C706.185 123.588 701.377 128.338 695.922 132.258C690.586 136.325 684.699 139.613 678.437 142.021C672.171 144.488 665.587 146.058 658.882 146.683C655.53 146.984 652.16 147.052 648.799 146.887C645.425 146.801 642.063 146.45 638.745 145.838C625.351 143.374 612.909 137.229 602.812 128.091L603.657 128.353L567.375 133.919L564.723 134.327L566.063 131.996L584.132 100.522V101.775C579.868 91.3641 578.055 80.1123 578.833 68.8892C579.612 57.6661 582.96 46.7722 588.62 37.0495C594.272 27.3573 602.043 19.0685 611.351 12.8029C620.643 6.62057 631.215 2.62242 642.274 1.10829C653.332 -0.405847 664.589 0.60334 675.202 4.06018C685.702 7.63241 695.271 13.5071 703.208 21.2542C711.127 28.9821 717.183 38.4123 720.914 48.8293C724.646 59.2463 725.955 70.3765 724.744 81.3752ZM724.744 81.3752C725.922 70.4306 724.568 59.3619 720.789 49.0234C717.009 38.685 710.904 29.3535 702.945 21.7493C694.986 14.1451 685.386 8.47176 674.886 5.16718C664.386 1.8626 653.267 1.01522 642.387 2.69047C631.617 4.28465 621.357 8.33278 612.4 14.5223C603.519 20.7605 596.101 28.8547 590.659 38.2443C585.302 47.6547 582.143 58.1558 581.421 68.9605C580.712 79.8382 582.465 90.736 586.55 100.842L586.813 101.483L586.463 102.095L568.161 133.453L566.879 131.529L603.249 126.429H603.744L604.094 126.75C613.816 135.799 625.864 141.964 638.89 144.556C642.136 145.217 645.43 145.617 648.74 145.751C652.049 145.984 655.37 145.984 658.678 145.751C665.313 145.216 671.843 143.775 678.087 141.467C684.344 139.189 690.235 136.008 695.572 132.025C701.005 128.136 705.819 123.45 709.852 118.124C718.118 107.487 723.273 94.7659 724.744 81.3752Z" fill="#263238"/>
<path d="M617.005 107.691C616.949 106.726 617.091 105.76 617.424 104.853C617.757 103.945 618.273 103.116 618.94 102.417C619.607 101.717 620.41 101.162 621.301 100.786C622.191 100.41 623.149 100.221 624.115 100.23C626.094 100.23 627.991 101.016 629.391 102.415C630.79 103.815 631.576 105.712 631.576 107.691C631.576 109.669 630.79 111.567 629.391 112.966C627.991 114.365 626.094 115.151 624.115 115.151C623.149 115.161 622.191 114.972 621.301 114.596C620.41 114.22 619.607 113.664 618.94 112.965C618.273 112.265 617.757 111.436 617.424 110.529C617.091 109.622 616.949 108.656 617.005 107.691ZM619.919 90.4676L618.229 32.6489H629.886L628.195 90.4676H619.919Z" fill="#EBEBEB"/>
<path d="M644.719 107.691C644.663 106.728 644.805 105.765 645.136 104.86C645.468 103.954 645.981 103.127 646.644 102.427C647.308 101.728 648.108 101.173 648.995 100.795C649.882 100.417 650.837 100.225 651.8 100.23C653.779 100.23 655.677 101.016 657.076 102.415C658.475 103.815 659.261 105.712 659.261 107.691C659.261 109.669 658.475 111.567 657.076 112.966C655.677 114.365 653.779 115.151 651.8 115.151C650.837 115.157 649.882 114.965 648.995 114.587C648.108 114.209 647.308 113.653 646.644 112.954C645.981 112.255 645.468 111.427 645.136 110.522C644.805 109.617 644.663 108.653 644.719 107.691ZM647.633 90.4676L646.03 32.6489H657.687L655.997 90.4676H647.633Z" fill="#EBEBEB"/>
<path d="M672.404 107.691C672.348 106.726 672.491 105.76 672.824 104.853C673.157 103.945 673.673 103.116 674.34 102.417C675.006 101.717 675.81 101.162 676.7 100.786C677.59 100.41 678.548 100.221 679.515 100.23C681.493 100.23 683.391 101.016 684.79 102.415C686.189 103.815 686.975 105.712 686.975 107.691C686.975 109.669 686.189 111.567 684.79 112.966C683.391 114.365 681.493 115.151 679.515 115.151C678.548 115.161 677.59 114.972 676.7 114.596C675.81 114.22 675.006 113.664 674.34 112.965C673.673 112.265 673.157 111.436 672.824 110.529C672.491 109.622 672.348 108.656 672.404 107.691ZM675.318 90.4676L673.628 32.6489H685.285L683.624 90.4676H675.318Z" fill="#EBEBEB"/>
</svg>
