<svg width="16" height="17" viewBox="0 0 16 17" fill="none" xmlns="http://www.w3.org/2000/svg">
<circle cx="7.99998" cy="8.76745" r="5.9" stroke="#DE7965"/>
<mask id="path-3-inside-1_1_1295" fill="white">
<path fill-rule="evenodd" clip-rule="evenodd" d="M8.00002 5.56746C7.66865 5.56746 7.40002 5.83608 7.40002 6.16746V8.96745C7.40002 9.29883 7.66865 9.56746 8.00002 9.56746C8.3314 9.56746 8.60002 9.29883 8.60002 8.96745V6.16746C8.60002 5.83608 8.3314 5.56746 8.00002 5.56746ZM8.00002 11.9675C8.3314 11.9675 8.60002 11.6988 8.60002 11.3675C8.60002 11.0361 8.3314 10.7675 8.00002 10.7675C7.66865 10.7675 7.40002 11.0361 7.40002 11.3675C7.40002 11.6988 7.66865 11.9675 8.00002 11.9675Z"/>
</mask>
<path fill-rule="evenodd" clip-rule="evenodd" d="M8.00002 5.56746C7.66865 5.56746 7.40002 5.83608 7.40002 6.16746V8.96745C7.40002 9.29883 7.66865 9.56746 8.00002 9.56746C8.3314 9.56746 8.60002 9.29883 8.60002 8.96745V6.16746C8.60002 5.83608 8.3314 5.56746 8.00002 5.56746ZM8.00002 11.9675C8.3314 11.9675 8.60002 11.6988 8.60002 11.3675C8.60002 11.0361 8.3314 10.7675 8.00002 10.7675C7.66865 10.7675 7.40002 11.0361 7.40002 11.3675C7.40002 11.6988 7.66865 11.9675 8.00002 11.9675Z" fill="#DE7965"/>
<path d="M8.40002 6.16746C8.40002 6.38837 8.22094 6.56746 8.00002 6.56746V4.56746C7.11637 4.56746 6.40002 5.2838 6.40002 6.16746H8.40002ZM8.40002 8.96745V6.16746H6.40002L6.40002 8.96745H8.40002ZM8.00002 8.56746C8.22094 8.56746 8.40002 8.74654 8.40002 8.96745H6.40002C6.40002 9.85111 7.11637 10.5675 8.00002 10.5675V8.56746ZM7.60002 8.96745C7.60002 8.74654 7.77911 8.56746 8.00002 8.56746V10.5675C8.88368 10.5675 9.60002 9.85111 9.60002 8.96745H7.60002ZM7.60002 6.16746L7.60002 8.96745H9.60002V6.16746H7.60002ZM8.00002 6.56746C7.77911 6.56746 7.60002 6.38837 7.60002 6.16746H9.60002C9.60002 5.2838 8.88368 4.56746 8.00002 4.56746V6.56746ZM7.60002 11.3675C7.60002 11.1465 7.77911 10.9675 8.00002 10.9675V12.9675C8.88368 12.9675 9.60002 12.2511 9.60002 11.3675H7.60002ZM8.00002 11.7675C7.77911 11.7675 7.60002 11.5884 7.60002 11.3675H9.60002C9.60002 10.4838 8.88368 9.76746 8.00002 9.76746V11.7675ZM8.40002 11.3675C8.40002 11.5884 8.22094 11.7675 8.00002 11.7675V9.76746C7.11637 9.76746 6.40002 10.4838 6.40002 11.3675H8.40002ZM8.00002 10.9675C8.22094 10.9675 8.40002 11.1465 8.40002 11.3675H6.40002C6.40002 12.2511 7.11637 12.9675 8.00002 12.9675V10.9675Z" fill="#DE7965" mask="url(#path-3-inside-1_1_1295)"/>
</svg>
