<svg width="25" height="25" viewBox="0 0 25 25" fill="none" xmlns="http://www.w3.org/2000/svg">
<path d="M16.1211 10.6465H18.1211" stroke="#786D8F" stroke-width="2" stroke-linecap="round" stroke-linejoin="round"/>
<path d="M16.1211 14.6465H18.1211" stroke="#786D8F" stroke-width="2" stroke-linecap="round" stroke-linejoin="round"/>
<path d="M6.29297 15.647C6.49911 15.061 6.88207 14.5535 7.38899 14.1945C7.8959 13.8354 8.50178 13.6426 9.12297 13.6426C9.74416 13.6426 10.35 13.8354 10.8569 14.1945C11.3639 14.5535 11.7468 15.061 11.953 15.647" stroke="#786D8F" stroke-width="2" stroke-linecap="round" stroke-linejoin="round"/>
<path d="M9.12109 13.6465C10.2257 13.6465 11.1211 12.7511 11.1211 11.6465C11.1211 10.5419 10.2257 9.64648 9.12109 9.64648C8.01652 9.64648 7.12109 10.5419 7.12109 11.6465C7.12109 12.7511 8.01652 13.6465 9.12109 13.6465Z" stroke="#786D8F" stroke-width="2" stroke-linecap="round" stroke-linejoin="round"/>
<path d="M20.1211 5.64648H4.12109C3.01652 5.64648 2.12109 6.54191 2.12109 7.64648V17.6465C2.12109 18.7511 3.01652 19.6465 4.12109 19.6465H20.1211C21.2257 19.6465 22.1211 18.7511 22.1211 17.6465V7.64648C22.1211 6.54191 21.2257 5.64648 20.1211 5.64648Z" stroke="#786D8F" stroke-width="2" stroke-linecap="round" stroke-linejoin="round"/>
</svg>
