<svg width="12" height="16" viewBox="0 0 12 16" fill="none" xmlns="http://www.w3.org/2000/svg">
<g clip-path="url(#clip0_1657_18601)">
<path d="M11.4851 4.51181V11.4886C11.4851 14.2793 10.7994 14.9769 8.05653 14.9769H3.94224C1.19939 14.9769 0.513672 14.2793 0.513672 11.4886V4.51181C0.513672 1.72111 1.19939 1.02344 3.94224 1.02344H8.05653C10.7994 1.02344 11.4851 1.72111 11.4851 4.51181Z" stroke="#8F95B2" stroke-linecap="round" stroke-linejoin="round"/>
<path d="M7.37176 3.46533H4.62891" stroke="#8F95B2" stroke-linecap="round" stroke-linejoin="round"/>
<path d="M7.06321 11.8724C7.06321 12.0863 7.00088 12.2954 6.88409 12.4732C6.7673 12.651 6.60131 12.7896 6.4071 12.8715C6.21288 12.9533 5.99918 12.9748 5.793 12.933C5.58683 12.8913 5.39745 12.7883 5.2488 12.6371C5.10016 12.4858 4.99893 12.2932 4.95792 12.0834C4.91691 11.8736 4.93796 11.6562 5.01841 11.4586C5.09885 11.261 5.23508 11.0921 5.40987 10.9733C5.58465 10.8544 5.79014 10.791 6.00036 10.791C6.28224 10.791 6.55259 10.9049 6.75191 11.1077C6.95123 11.3105 7.06321 11.5856 7.06321 11.8724V11.8724Z" stroke="#8F95B2" stroke-linecap="round" stroke-linejoin="round"/>
</g>
<defs>
<clipPath id="clip0_1657_18601">
<rect width="12" height="15" fill="white" transform="translate(0 0.5)"/>
</clipPath>
</defs>
</svg>
