<svg id="visual" viewBox="0 0 450 900" width="450" height="900" xmlns="http://www.w3.org/2000/svg" xmlns:xlink="http://www.w3.org/1999/xlink" version="1.1"><path d="M0 495L9.3 481.5C18.7 468 37.3 441 56.2 452.3C75 463.7 94 513.3 112.8 527.7C131.7 542 150.3 521 169 509.3C187.7 497.7 206.3 495.3 225 491.5C243.7 487.7 262.3 482.3 281.2 497.8C300 513.3 319 549.7 337.8 537C356.7 524.3 375.3 462.7 394 447.8C412.7 433 431.3 465 440.7 481L450 497L450 901L440.7 901C431.3 901 412.7 901 394 901C375.3 901 356.7 901 337.8 901C319 901 300 901 281.2 901C262.3 901 243.7 901 225 901C206.3 901 187.7 901 169 901C150.3 901 131.7 901 112.8 901C94 901 75 901 56.2 901C37.3 901 18.7 901 9.3 901L0 901Z" fill="#6539c3"></path><path d="M0 504L9.3 523.5C18.7 543 37.3 582 56.2 594.5C75 607 94 593 112.8 599C131.7 605 150.3 631 169 628.5C187.7 626 206.3 595 225 588.3C243.7 581.7 262.3 599.3 281.2 588.8C300 578.3 319 539.7 337.8 525.2C356.7 510.7 375.3 520.3 394 542.8C412.7 565.3 431.3 600.7 440.7 618.3L450 636L450 901L440.7 901C431.3 901 412.7 901 394 901C375.3 901 356.7 901 337.8 901C319 901 300 901 281.2 901C262.3 901 243.7 901 225 901C206.3 901 187.7 901 169 901C150.3 901 131.7 901 112.8 901C94 901 75 901 56.2 901C37.3 901 18.7 901 9.3 901L0 901Z" fill="#7b42cc"></path><path d="M0 625L9.3 644C18.7 663 37.3 701 56.2 715.2C75 729.3 94 719.7 112.8 710.2C131.7 700.7 150.3 691.3 169 696C187.7 700.7 206.3 719.3 225 717.3C243.7 715.3 262.3 692.7 281.2 679.3C300 666 319 662 337.8 671.8C356.7 681.7 375.3 705.3 394 697.2C412.7 689 431.3 649 440.7 629L450 609L450 901L440.7 901C431.3 901 412.7 901 394 901C375.3 901 356.7 901 337.8 901C319 901 300 901 281.2 901C262.3 901 243.7 901 225 901C206.3 901 187.7 901 169 901C150.3 901 131.7 901 112.8 901C94 901 75 901 56.2 901C37.3 901 18.7 901 9.3 901L0 901Z" fill="#8f4cd6"></path><path d="M0 832L9.3 816.3C18.7 800.7 37.3 769.3 56.2 754C75 738.7 94 739.3 112.8 744.2C131.7 749 150.3 758 169 772.3C187.7 786.7 206.3 806.3 225 807.8C243.7 809.3 262.3 792.7 281.2 779.3C300 766 319 756 337.8 755.7C356.7 755.3 375.3 764.7 394 764.7C412.7 764.7 431.3 755.3 440.7 750.7L450 746L450 901L440.7 901C431.3 901 412.7 901 394 901C375.3 901 356.7 901 337.8 901C319 901 300 901 281.2 901C262.3 901 243.7 901 225 901C206.3 901 187.7 901 169 901C150.3 901 131.7 901 112.8 901C94 901 75 901 56.2 901C37.3 901 18.7 901 9.3 901L0 901Z" fill="#a355df"></path></svg>