<svg id="visual" viewBox="0 0 1920 1080" width="1920" height="1080" xmlns="http://www.w3.org/2000/svg" xmlns:xlink="http://www.w3.org/1999/xlink" version="1.1"><path d="M0 894L45.7 898C91.3 902 182.7 910 274.2 913.8C365.7 917.7 457.3 917.3 548.8 898.5C640.3 879.7 731.7 842.3 823 839.5C914.3 836.7 1005.7 868.3 1097 887.8C1188.3 907.3 1279.7 914.7 1371.2 906.8C1462.7 899 1554.3 876 1645.8 862.7C1737.3 849.3 1828.7 845.7 1874.3 843.8L1920 842L1920 1081L1874.3 1081C1828.7 1081 1737.3 1081 1645.8 1081C1554.3 1081 1462.7 1081 1371.2 1081C1279.7 1081 1188.3 1081 1097 1081C1005.7 1081 914.3 1081 823 1081C731.7 1081 640.3 1081 548.8 1081C457.3 1081 365.7 1081 274.2 1081C182.7 1081 91.3 1081 45.7 1081L0 1081Z" fill="#6539c3"></path><path d="M0 939L45.7 927.8C91.3 916.7 182.7 894.3 274.2 896.7C365.7 899 457.3 926 548.8 925.7C640.3 925.3 731.7 897.7 823 900.5C914.3 903.3 1005.7 936.7 1097 937.3C1188.3 938 1279.7 906 1371.2 898.3C1462.7 890.7 1554.3 907.3 1645.8 906.3C1737.3 905.3 1828.7 886.7 1874.3 877.3L1920 868L1920 1081L1874.3 1081C1828.7 1081 1737.3 1081 1645.8 1081C1554.3 1081 1462.7 1081 1371.2 1081C1279.7 1081 1188.3 1081 1097 1081C1005.7 1081 914.3 1081 823 1081C731.7 1081 640.3 1081 548.8 1081C457.3 1081 365.7 1081 274.2 1081C182.7 1081 91.3 1081 45.7 1081L0 1081Z" fill="#7b42cc"></path><path d="M0 938L45.7 947C91.3 956 182.7 974 274.2 983.8C365.7 993.7 457.3 995.3 548.8 996.5C640.3 997.7 731.7 998.3 823 992.5C914.3 986.7 1005.7 974.3 1097 978.2C1188.3 982 1279.7 1002 1371.2 1003.8C1462.7 1005.7 1554.3 989.3 1645.8 983.8C1737.3 978.3 1828.7 983.7 1874.3 986.3L1920 989L1920 1081L1874.3 1081C1828.7 1081 1737.3 1081 1645.8 1081C1554.3 1081 1462.7 1081 1371.2 1081C1279.7 1081 1188.3 1081 1097 1081C1005.7 1081 914.3 1081 823 1081C731.7 1081 640.3 1081 548.8 1081C457.3 1081 365.7 1081 274.2 1081C182.7 1081 91.3 1081 45.7 1081L0 1081Z" fill="#8f4cd6"></path><path d="M0 1006L45.7 1006.5C91.3 1007 182.7 1008 274.2 1006.8C365.7 1005.7 457.3 1002.3 548.8 1006.8C640.3 1011.3 731.7 1023.7 823 1021.7C914.3 1019.7 1005.7 1003.3 1097 1002.7C1188.3 1002 1279.7 1017 1371.2 1015.7C1462.7 1014.3 1554.3 996.7 1645.8 999.5C1737.3 1002.3 1828.7 1025.7 1874.3 1037.3L1920 1049L1920 1081L1874.3 1081C1828.7 1081 1737.3 1081 1645.8 1081C1554.3 1081 1462.7 1081 1371.2 1081C1279.7 1081 1188.3 1081 1097 1081C1005.7 1081 914.3 1081 823 1081C731.7 1081 640.3 1081 548.8 1081C457.3 1081 365.7 1081 274.2 1081C182.7 1081 91.3 1081 45.7 1081L0 1081Z" fill="#a355df"></path></svg>