<svg id="visual" viewBox="0 0 900 600" width="900" height="600" xmlns="http://www.w3.org/2000/svg" xmlns:xlink="http://www.w3.org/1999/xlink" version="1.1"><path d="M747 600L750.3 585.7C753.7 571.3 760.3 542.7 763.5 514.2C766.7 485.7 766.3 457.3 750.7 428.8C735 400.3 704 371.7 701.7 343C699.3 314.3 725.7 285.7 742 257C758.3 228.3 764.7 199.7 758.2 171.2C751.7 142.7 732.3 114.3 721.2 85.8C710 57.3 707 28.7 705.5 14.3L704 0L900 0L900 14.3C900 28.7 900 57.3 900 85.8C900 114.3 900 142.7 900 171.2C900 199.7 900 228.3 900 257C900 285.7 900 314.3 900 343C900 371.7 900 400.3 900 428.8C900 457.3 900 485.7 900 514.2C900 542.7 900 571.3 900 585.7L900 600Z" fill="#6539c3"></path><path d="M784 600L774.8 585.7C765.7 571.3 747.3 542.7 749.3 514.2C751.3 485.7 773.7 457.3 773.3 428.8C773 400.3 750 371.7 752.3 343C754.7 314.3 782.3 285.7 782.8 257C783.3 228.3 756.7 199.7 750.3 171.2C744 142.7 758 114.3 757.2 85.8C756.3 57.3 740.7 28.7 732.8 14.3L725 0L900 0L900 14.3C900 28.7 900 57.3 900 85.8C900 114.3 900 142.7 900 171.2C900 199.7 900 228.3 900 257C900 285.7 900 314.3 900 343C900 371.7 900 400.3 900 428.8C900 457.3 900 485.7 900 514.2C900 542.7 900 571.3 900 585.7L900 600Z" fill="#7b42cc"></path><path d="M783 600L790.5 585.7C798 571.3 813 542.7 821.2 514.2C829.3 485.7 830.7 457.3 831.7 428.8C832.7 400.3 833.3 371.7 828.7 343C824 314.3 814 285.7 817.2 257C820.3 228.3 836.7 199.7 838 171.2C839.3 142.7 825.7 114.3 821.2 85.8C816.7 57.3 821.3 28.7 823.7 14.3L826 0L900 0L900 14.3C900 28.7 900 57.3 900 85.8C900 114.3 900 142.7 900 171.2C900 199.7 900 228.3 900 257C900 285.7 900 314.3 900 343C900 371.7 900 400.3 900 428.8C900 457.3 900 485.7 900 514.2C900 542.7 900 571.3 900 585.7L900 600Z" fill="#8f4cd6"></path><path d="M840 600L840.5 585.7C841 571.3 842 542.7 841 514.2C840 485.7 837 457.3 840.7 428.8C844.3 400.3 854.7 371.7 853 343C851.3 314.3 837.7 285.7 837.2 257C836.7 228.3 849.3 199.7 848.2 171.2C847 142.7 832 114.3 834.3 85.8C836.7 57.3 856.3 28.7 866.2 14.3L876 0L900 0L900 14.3C900 28.7 900 57.3 900 85.8C900 114.3 900 142.7 900 171.2C900 199.7 900 228.3 900 257C900 285.7 900 314.3 900 343C900 371.7 900 400.3 900 428.8C900 457.3 900 485.7 900 514.2C900 542.7 900 571.3 900 585.7L900 600Z" fill="#a355df"></path></svg>