<svg id="visual" viewBox="0 0 450 900" width="450" height="900" xmlns="http://www.w3.org/2000/svg" xmlns:xlink="http://www.w3.org/1999/xlink" version="1.1"><path d="M0 668L9.3 660.3C18.7 652.7 37.3 637.3 56.2 643.8C75 650.3 94 678.7 112.8 686.8C131.7 695 150.3 683 169 676.3C187.7 669.7 206.3 668.3 225 666.2C243.7 664 262.3 661 281.2 669.8C300 678.7 319 699.3 337.8 692C356.7 684.7 375.3 649.3 394 640.8C412.7 632.3 431.3 650.7 440.7 659.8L450 669L450 901L440.7 901C431.3 901 412.7 901 394 901C375.3 901 356.7 901 337.8 901C319 901 300 901 281.2 901C262.3 901 243.7 901 225 901C206.3 901 187.7 901 169 901C150.3 901 131.7 901 112.8 901C94 901 75 901 56.2 901C37.3 901 18.7 901 9.3 901L0 901Z" fill="#6539c3"></path><path d="M0 673L9.3 684.2C18.7 695.3 37.3 717.7 56.2 724.8C75 732 94 724 112.8 727.5C131.7 731 150.3 746 169 744.5C187.7 743 206.3 725 225 721.2C243.7 717.3 262.3 727.7 281.2 721.8C300 716 319 694 337.8 685.7C356.7 677.3 375.3 682.7 394 695.5C412.7 708.3 431.3 728.7 440.7 738.8L450 749L450 901L440.7 901C431.3 901 412.7 901 394 901C375.3 901 356.7 901 337.8 901C319 901 300 901 281.2 901C262.3 901 243.7 901 225 901C206.3 901 187.7 901 169 901C150.3 901 131.7 901 112.8 901C94 901 75 901 56.2 901C37.3 901 18.7 901 9.3 901L0 901Z" fill="#7b42cc"></path><path d="M0 742L9.3 753C18.7 764 37.3 786 56.2 794.2C75 802.3 94 796.7 112.8 791.2C131.7 785.7 150.3 780.3 169 783C187.7 785.7 206.3 796.3 225 795.2C243.7 794 262.3 781 281.2 773.3C300 765.7 319 763.3 337.8 769C356.7 774.7 375.3 788.3 394 783.7C412.7 779 431.3 756 440.7 744.5L450 733L450 901L440.7 901C431.3 901 412.7 901 394 901C375.3 901 356.7 901 337.8 901C319 901 300 901 281.2 901C262.3 901 243.7 901 225 901C206.3 901 187.7 901 169 901C150.3 901 131.7 901 112.8 901C94 901 75 901 56.2 901C37.3 901 18.7 901 9.3 901L0 901Z" fill="#8f4cd6"></path><path d="M0 861L9.3 852C18.7 843 37.3 825 56.2 816.2C75 807.3 94 807.7 112.8 810.5C131.7 813.3 150.3 818.7 169 826.8C187.7 835 206.3 846 225 846.8C243.7 847.7 262.3 838.3 281.2 830.7C300 823 319 817 337.8 816.8C356.7 816.7 375.3 822.3 394 822.5C412.7 822.7 431.3 817.3 440.7 814.7L450 812L450 901L440.7 901C431.3 901 412.7 901 394 901C375.3 901 356.7 901 337.8 901C319 901 300 901 281.2 901C262.3 901 243.7 901 225 901C206.3 901 187.7 901 169 901C150.3 901 131.7 901 112.8 901C94 901 75 901 56.2 901C37.3 901 18.7 901 9.3 901L0 901Z" fill="#a355df"></path></svg>